<svg transform="scale(1)" version="1.1" id="_x30_117_x5F_Hiring_x5F_5" xmlns="http://www.w3.org/2000/svg" xmlns:xlink="http://www.w3.org/1999/xlink" x="0px" y="0px" viewBox="0 0 500 500" xml:space="preserve" class="show_show__wrapper__graphic__5Waiy "><title>React</title><style type="text/css">
	.st0{fill:#FFFFFF;}
	.st1{fill:#ba8bff;}
	.st2{fill:none;stroke:#732A09;stroke-linecap:round;stroke-linejoin:round;}
	.st3{fill:#5c27a9;}
</style><g id="puzzle-1"><path class="st0" d="M444.9,155v88.1c0,3.4-2.7,6.1-6.1,6.1H410c-3.7,0-8.6,2.9-5.6,8.6l0,0c1.6,2.4,2.5,5.3,2.5,8.2
		c0,8.3-6.7,15-15,15c-8.3,0-15-6.7-15-15c0-2.9,0.8-5.8,2.5-8.2l0,0c3-5.7-1.9-8.6-5.6-8.6h-30.7c-3.4,0-6.1-2.7-6.1-6.1v-24.2
		c0-3.7,2.9-8.6,8.6-5.6l0,0c2.4,1.6,5.3,2.5,8.2,2.5c8.3,0,15-6.7,15-15s-6.7-15-15-15l0,0c-2.9,0-5.8,0.8-8.2,2.5l0,0
		c-5.7,3-8.6-1.9-8.6-5.6V155c0-3.4,2.7-6.1,6.1-6.1h96C442.2,148.9,444.9,151.7,444.9,155z"></path><path class="st1" d="M391.9,281.6c-8.6,0-15.5-7-15.5-15.5c0-3,0.9-5.9,2.5-8.5l0,0l0,0c1.1-2,1.2-3.8,0.3-5.2
		c-1.1-1.9-3.6-2.7-5.5-2.7h-30.8c-3.6,0-6.6-3-6.6-6.6v-24.3c0-2.2,1-5,3.2-6.3c1.2-0.7,3.2-1.3,6.1,0.3h0.1l0,0
		c2.4,1.6,5.1,2.4,8,2.4c8-0.2,14.4-6.9,14.2-14.9c-0.2-7.7-6.4-14-14.2-14.2c-2.8,0-5.6,0.8-8,2.4l0,0l-0.1,0.1l0,0
		c-2.9,1.5-5,1-6.1,0.3c-2.2-1.3-3.2-4.1-3.2-6.3V155c0-3.6,3-6.6,6.6-6.6h96c3.6,0,6.6,3,6.6,6.6v88.1c0,3.6-3,6.6-6.6,6.6H410
		c-1.9,0-4.4,0.8-5.5,2.7c-0.9,1.4-0.8,3.2,0.3,5.2l0,0l0,0c4.7,7.2,2.6,16.8-4.6,21.5C397.7,280.7,394.8,281.5,391.9,281.6
		L391.9,281.6z M379.7,258.1L379.7,258.1c-4.4,6.7-2.5,15.7,4.2,20.1c6.7,4.4,15.7,2.5,20.1-4.2c3.2-4.8,3.2-11.1,0-15.9l0,0
		c0,0,0,0,0-0.1l0,0c-1.5-2.9-1-5-0.3-6.1c1.3-2.2,4.1-3.1,6.3-3.1h28.8c3.1,0,5.6-2.5,5.6-5.6V155c0-3.1-2.5-5.6-5.6-5.6h-96
		c-3.1,0-5.6,2.5-5.6,5.6v27.4c0,1.9,0.8,4.4,2.7,5.5c1.4,0.9,3.1,0.8,5.2-0.3l0,0c2.5-1.7,5.5-2.5,8.5-2.5
		c8.6,0,15.6,6.9,15.6,15.5c0,8.6-6.9,15.6-15.5,15.6c-3,0-6-0.9-8.6-2.5l0,0c-2-1.1-3.8-1.1-5.2-0.3c-1.9,1.1-2.7,3.6-2.7,5.5v24.3
		c0,3.1,2.5,5.6,5.6,5.6h30.8c2.2,0,5,1,6.4,3.1c0.7,1.2,1.3,3.2-0.3,6.1C379.7,258.1,379.7,258.1,379.7,258.1z"></path><path class="st0" d="M404.6,224.9H377v-13.8c0-7.6,6.2-13.8,13.8-13.8l0,0c7.6,0,13.8,6.2,13.8,13.8L404.6,224.9z"></path><path class="st0" d="M404.6,225.4H377c-0.3,0-0.5-0.2-0.5-0.5v-13.8c0-7.9,6.4-14.3,14.3-14.3c7.9,0,14.3,6.4,14.3,14.3v13.8
		C405.1,225.2,404.9,225.4,404.6,225.4z M377.6,224.4h26.5v-13.3c0-7.3-5.9-13.3-13.3-13.3c-7.3,0-13.3,5.9-13.3,13.3V224.4z"></path><circle class="st0" cx="390.8" cy="182.6" r="10.1"></circle><path class="st0" d="M390.8,193.2c-5.8,0-10.6-4.7-10.6-10.6S385,172,390.8,172c5.8,0,10.6,4.7,10.6,10.6v0
		C401.4,188.4,396.7,193.1,390.8,193.2z M390.8,173c-5.3,0-9.6,4.3-9.6,9.6s4.3,9.6,9.6,9.6c5.3,0,9.6-4.3,9.6-9.6c0,0,0,0,0,0
		C400.4,177.3,396.1,173,390.8,173z"></path><path class="st0" d="M404.6,224.9H377v-13.8c0-7.6,6.2-13.8,13.8-13.8l0,0c7.6,0,13.8,6.2,13.8,13.8L404.6,224.9z"></path><path class="st1" d="M404.6,225.4H377c-0.3,0-0.5-0.2-0.5-0.5v-13.8c0-7.9,6.4-14.3,14.3-14.3c7.9,0,14.3,6.4,14.3,14.3v13.8
		C405.1,225.2,404.9,225.4,404.6,225.4z M377.6,224.4h26.5v-13.3c0-7.3-5.9-13.3-13.3-13.3c-7.3,0-13.3,5.9-13.3,13.3V224.4z"></path><circle class="st0" cx="390.8" cy="182.6" r="10.1"></circle><path class="st1" d="M390.8,193.2c-5.8,0-10.6-4.7-10.6-10.6S385,172,390.8,172c5.8,0,10.6,4.7,10.6,10.6v0
		C401.4,188.4,396.7,193.1,390.8,193.2z M390.8,173c-5.3,0-9.6,4.3-9.6,9.6s4.3,9.6,9.6,9.6c5.3,0,9.6-4.3,9.6-9.6c0,0,0,0,0,0
		C400.4,177.3,396.1,173,390.8,173z"></path><path class="st2" d="M404.6,224.9H377v-13.8c0-7.6,6.2-13.8,13.8-13.8l0,0c7.6,0,13.8,6.2,13.8,13.8L404.6,224.9z"></path><path class="st2" d="M404.6,225.4H377c-0.3,0-0.5-0.2-0.5-0.5v-13.8c0-7.9,6.4-14.3,14.3-14.3c7.9,0,14.3,6.4,14.3,14.3v13.8
		C405.1,225.2,404.9,225.4,404.6,225.4z M377.6,224.4h26.5v-13.3c0-7.3-5.9-13.3-13.3-13.3c-7.3,0-13.3,5.9-13.3,13.3V224.4z"></path><circle class="st2" cx="390.8" cy="182.6" r="10.1"></circle><path class="st2" d="M390.8,193.2c-5.8,0-10.6-4.7-10.6-10.6S385,172,390.8,172c5.8,0,10.6,4.7,10.6,10.6v0
		C401.4,188.4,396.7,193.1,390.8,193.2z M390.8,173c-5.3,0-9.6,4.3-9.6,9.6s4.3,9.6,9.6,9.6c5.3,0,9.6-4.3,9.6-9.6c0,0,0,0,0,0
		C400.4,177.3,396.1,173,390.8,173z"></path></g><g id="puzzle-2"><path class="st3" d="M444.9,255.3v88.1c0,3.4-2.7,6.1-6.1,6.1h-96c-3.4,0-6.1-2.7-6.1-6.1v-88.1c0-3.4,2.7-6.1,6.1-6.1h30.8
		c3.7,0,8.6,2.9,5.6,8.6l0,0c-1.6,2.4-2.5,5.3-2.5,8.2c0,8.3,6.7,15,15,15c8.3,0,15-6.7,15-15c0-2.9-0.8-5.8-2.5-8.2l0,0
		c-3-5.7,1.9-8.6,5.6-8.6h28.8C442.1,249.2,444.9,252,444.9,255.3C444.9,255.3,444.9,255.3,444.9,255.3z"></path><path class="st1" d="M438.8,350h-96c-3.6,0-6.6-3-6.6-6.6v-88.1c0-3.6,3-6.6,6.6-6.6h30.8c2.2,0,5,1,6.4,3.1
		c0.7,1.2,1.3,3.2-0.3,6.2c0,0,0,0.1,0,0.1l0,0c-4.4,6.7-2.5,15.7,4.2,20.1c6.7,4.4,15.7,2.5,20.1-4.2c3.2-4.8,3.2-11.1,0-15.9l0,0
		c0,0,0,0,0-0.1l0,0c-1.5-2.9-1-5-0.3-6.1c1.3-2.2,4.1-3.1,6.3-3.1h28.8c3.6,0,6.6,3,6.6,6.6v88.1C445.4,347.1,442.4,350,438.8,350z
		 M342.8,249.7c-3.1,0-5.6,2.5-5.6,5.6v88.1c0,3.1,2.5,5.6,5.6,5.6h96c3.1,0,5.6-2.5,5.6-5.6v-88.1c0-3.1-2.5-5.6-5.6-5.6H410
		c-1.9,0-4.4,0.8-5.5,2.7c-0.9,1.4-0.8,3.2,0.3,5.2l0,0l0,0c4.7,7.2,2.7,16.8-4.5,21.5c-7.2,4.7-16.8,2.7-21.5-4.5
		c-3.4-5.2-3.4-11.9,0-17.1l0,0l0,0c1.1-2,1.2-3.8,0.3-5.2c-1.1-1.9-3.6-2.7-5.5-2.7L342.8,249.7z"></path><path class="st1" d="M404.6,338.5H377c-0.3,0-0.5-0.2-0.5-0.5v-13.8c0-7.9,6.4-14.3,14.3-14.3c7.9,0,14.3,6.4,14.3,14.3V338
		C405.1,338.3,404.9,338.5,404.6,338.5z M377.6,337.5h26.5v-13.3c0-7.3-5.9-13.3-13.3-13.3c-7.3,0-13.3,5.9-13.3,13.3V337.5z"></path><path class="st1" d="M390.8,306.3c-5.8,0-10.6-4.7-10.6-10.6s4.7-10.6,10.6-10.6s10.6,4.7,10.6,10.6v0
		C401.4,301.5,396.7,306.3,390.8,306.3z M390.8,286.1c-5.3,0-9.6,4.3-9.6,9.6s4.3,9.6,9.6,9.6s9.6-4.3,9.6-9.6v0
		C400.4,290.4,396.1,286.1,390.8,286.1z"></path><path class="st2" d="M404.6,338.5H377c-0.3,0-0.5-0.2-0.5-0.5v-13.8c0-7.9,6.4-14.3,14.3-14.3c7.9,0,14.3,6.4,14.3,14.3V338
		C405.1,338.3,404.9,338.5,404.6,338.5z M377.6,337.5h26.5v-13.3c0-7.3-5.9-13.3-13.3-13.3c-7.3,0-13.3,5.9-13.3,13.3V337.5z"></path><path class="st2" d="M390.8,306.3c-5.8,0-10.6-4.7-10.6-10.6s4.7-10.6,10.6-10.6s10.6,4.7,10.6,10.6v0
		C401.4,301.5,396.7,306.3,390.8,306.3z M390.8,286.1c-5.3,0-9.6,4.3-9.6,9.6s4.3,9.6,9.6,9.6s9.6-4.3,9.6-9.6v0
		C400.4,290.4,396.1,286.1,390.8,286.1z"></path></g><g id="puzzle-3"><path class="st0" d="M336.8,255.3v88.1c0,3.4-2.7,6.1-6.1,6.1h-96c-3.4,0-6.1-2.7-6.1-6.1v-88.1c0-3.4,2.7-6.1,6.1-6.1h30.8
		c3.7,0,8.6,2.9,5.6,8.6l0,0c-1.6,2.4-2.5,5.3-2.5,8.2c0,8.3,6.7,15,15,15c8.3,0,15-6.7,15-15c0-2.9-0.8-5.8-2.5-8.2l0,0
		c-3-5.7,1.9-8.6,5.6-8.6h28.8C334,249.2,336.7,252,336.8,255.3C336.8,255.3,336.8,255.3,336.8,255.3z"></path><path class="st1" d="M330.7,350h-96c-3.6,0-6.6-3-6.6-6.6v-88.1c0-3.6,3-6.6,6.6-6.6h30.8c2.2,0,5,1,6.4,3.1
		c0.7,1.2,1.3,3.2-0.3,6.2c0,0,0,0.1,0,0.1l0,0c-4.4,6.7-2.5,15.7,4.2,20.1c6.7,4.4,15.7,2.5,20.1-4.2c3.2-4.8,3.2-11.1,0-15.9l0,0
		c0,0,0,0,0-0.1l0,0c-1.5-2.9-1-5-0.3-6.1c1.3-2.2,4.1-3.1,6.3-3.1h28.8c3.6,0,6.6,3,6.6,6.6v88.1C337.2,347.1,334.3,350,330.7,350z
		 M234.7,249.7c-3.1,0-5.6,2.5-5.6,5.6v88.1c0,3.1,2.5,5.6,5.6,5.6h96c3.1,0,5.6-2.5,5.6-5.6v-88.1c0-3.1-2.5-5.6-5.6-5.6h-28.8
		c-1.9,0-4.4,0.8-5.5,2.7c-0.9,1.4-0.8,3.2,0.3,5.2l0,0l0,0c4.7,7.2,2.7,16.8-4.5,21.5c-7.2,4.7-16.8,2.7-21.5-4.5
		c-3.4-5.2-3.4-11.9,0-17.1l0,0l0,0c1.1-2,1.2-3.8,0.3-5.2c-1.1-1.9-3.6-2.7-5.5-2.7L234.7,249.7z"></path><path class="st0" d="M296.5,338h-27.5v-13.8c0-7.6,6.2-13.8,13.8-13.8c0,0,0,0,0,0l0,0c7.6,0,13.8,6.2,13.8,13.8c0,0,0,0,0,0V338z"></path><path class="st0" d="M296.5,338.5h-27.5c-0.3,0-0.5-0.2-0.5-0.5v-13.8c0-7.9,6.4-14.3,14.3-14.3c7.9,0,14.3,6.4,14.3,14.3V338
		C297,338.3,296.7,338.5,296.5,338.5L296.5,338.5z M269.5,337.5H296v-13.3c0-7.3-5.9-13.3-13.3-13.3c-7.3,0-13.3,5.9-13.3,13.3
		V337.5z"></path><circle class="st0" cx="282.7" cy="295.7" r="10.1"></circle><path class="st0" d="M282.7,306.3c-5.8,0-10.6-4.7-10.6-10.6s4.7-10.6,10.6-10.6s10.6,4.7,10.6,10.6v0
		C293.3,301.5,288.5,306.3,282.7,306.3z M282.7,286.1c-5.3,0-9.6,4.3-9.6,9.6s4.3,9.6,9.6,9.6s9.6-4.3,9.6-9.6v0
		C292.3,290.4,288,286.1,282.7,286.1z"></path><path class="st0" d="M296.5,338h-27.5v-13.8c0-7.6,6.2-13.8,13.8-13.8c0,0,0,0,0,0l0,0c7.6,0,13.8,6.2,13.8,13.8c0,0,0,0,0,0V338z"></path><path class="st1" d="M296.5,338.5h-27.5c-0.3,0-0.5-0.2-0.5-0.5v-13.8c0-7.9,6.4-14.3,14.3-14.3c7.9,0,14.3,6.4,14.3,14.3V338
		C297,338.3,296.7,338.5,296.5,338.5L296.5,338.5z M269.5,337.5H296v-13.3c0-7.3-5.9-13.3-13.3-13.3c-7.3,0-13.3,5.9-13.3,13.3
		V337.5z"></path><circle class="st0" cx="282.7" cy="295.7" r="10.1"></circle><path class="st1" d="M282.7,306.3c-5.8,0-10.6-4.7-10.6-10.6s4.7-10.6,10.6-10.6s10.6,4.7,10.6,10.6v0
		C293.3,301.5,288.5,306.3,282.7,306.3z M282.7,286.1c-5.3,0-9.6,4.3-9.6,9.6s4.3,9.6,9.6,9.6s9.6-4.3,9.6-9.6v0
		C292.3,290.4,288,286.1,282.7,286.1z"></path><path class="st2" d="M296.5,338h-27.5v-13.8c0-7.6,6.2-13.8,13.8-13.8c0,0,0,0,0,0l0,0c7.6,0,13.8,6.2,13.8,13.8c0,0,0,0,0,0V338z"></path><path class="st2" d="M296.5,338.5h-27.5c-0.3,0-0.5-0.2-0.5-0.5v-13.8c0-7.9,6.4-14.3,14.3-14.3c7.9,0,14.3,6.4,14.3,14.3V338
		C297,338.3,296.7,338.5,296.5,338.5L296.5,338.5z M269.5,337.5H296v-13.3c0-7.3-5.9-13.3-13.3-13.3c-7.3,0-13.3,5.9-13.3,13.3
		V337.5z"></path><circle class="st2" cx="282.7" cy="295.7" r="10.1"></circle><path class="st2" d="M282.7,306.3c-5.8,0-10.6-4.7-10.6-10.6s4.7-10.6,10.6-10.6s10.6,4.7,10.6,10.6v0
		C293.3,301.5,288.5,306.3,282.7,306.3z M282.7,286.1c-5.3,0-9.6,4.3-9.6,9.6s4.3,9.6,9.6,9.6s9.6-4.3,9.6-9.6v0
		C292.3,290.4,288,286.1,282.7,286.1z"></path></g><g id="character"><path class="st0" d="M203.5,243.3c7,33.6,24.1,135.9,27.8,160.1c0.5,3.5-1.6,6.8-4.9,7.9l0,0c-9.4,2.9-19.2,3.7-28.9,2.4l-6.8-0.9
		c-2.9-0.4-5.2-2.5-5.9-5.3l-30.3-118.9c0,0-10.7,69.6-36.7,113.9c-1.8,3.1-5.3,4.8-8.8,4.4l0,0c-10.3-1.4-20.2-5.1-28.9-10.8
		l-2-1.4c-3.1-2-4.6-5.7-3.8-9.3c4.3-19.6,17.7-96.9,18.7-129.6L203.5,243.3z"></path><path class="st1" d="M206.6,414.8c-3.1,0-6.1-0.2-9.1-0.6l-6.8-0.9c-3.1-0.4-5.6-2.6-6.3-5.6L154.6,291
		c-2.1,12.6-13.3,72.4-36.3,111.8c-1.9,3.3-5.6,5.1-9.3,4.6c-10.4-1.4-20.4-5.1-29.2-10.9l-2-1.3c-3.2-2.1-4.8-6-4-9.8
		c4.3-19.5,17.7-96.4,18.7-129.5c0-0.2,0.2-0.5,0.4-0.5l110.7-12.5c0.3,0,0.5,0.1,0.6,0.4c7.2,34.5,24.3,137.5,27.8,160.1
		c0.6,3.7-1.7,7.3-5.3,8.4C220.1,413.8,213.4,414.8,206.6,414.8z M154.4,288c0.2,0,0.4,0.2,0.5,0.4l30.3,118.9
		c0.7,2.6,2.8,4.6,5.5,4.9l6.8,0.9c9.6,1.3,19.4,0.5,28.7-2.4c3.1-1,5.1-4.1,4.6-7.3c-3.5-22.6-20.4-124.7-27.7-159.6L93.3,256.2
		c-1.1,33.4-14.4,109.8-18.7,129.2c-0.7,3.4,0.7,6.9,3.6,8.8l2,1.4c8.7,5.7,18.5,9.3,28.8,10.7c3.4,0.4,6.7-1.2,8.3-4.1
		c25.6-43.7,36.5-113,36.6-113.8C154,288.2,154.2,288.1,154.4,288L154.4,288z"></path><path class="st3" d="M238.1,100.3c-3.1-4.2-8.3-4.3-19.6-0.8s-73.6,15.8-91.2,23.8s-43.9,24.8-42.1,61.8
		c1.2,24.4,0.2,49.8-0.7,64.1c-0.4,6.7,4.7,12.5,11.4,13.1c14.3,1.1,38.8,2.2,59.4-1.2c16.4-2.8,32.5-6.5,48.5-11.1
		c6.1-1.8,9.9-7.9,8.7-14.2l-8.8-46.6l34.4-73.1V100.3z"></path><path class="st3" d="M312.3,111.2c-2.9,1.2-5.4,3.3-7,6l0,0c-3.9,5.1-8.6,1.9-10.1-1.4l-10.7-22.8c-1.6-3.4-5.6-4.8-8.9-3.3
		c0,0,0,0-0.1,0l-85.7,40.2c-3.4,1.6-4.8,5.6-3.3,9c0,0,0,0,0,0l36.9,78.6c1.6,3.4,5.6,4.8,9,3.3c0,0,0,0,0,0l27.3-12.8
		c3.4-1.6,9-1.1,8.7,5.4l0,0c-0.4,2.8,0,5.6,1.1,8.2c3.4,7.6,12.3,10.9,19.9,7.5c7.6-3.4,10.9-12.3,7.5-19.9
		c-1.2-2.7-3.2-4.9-5.7-6.4l0,0c-5.1-3.9-1.9-8.6,1.5-10.1l25.4-11.9c3.4-1.6,4.8-5.6,3.3-9c0,0,0,0,0,0l-10.7-22.8
		c-1.6-3.4-1.1-9,5.4-8.7l0,0c8.2,1.2,15.8-4.5,17-12.7c0.5-3.2-0.1-6.5-1.7-9.3C327.7,111.2,319.5,108.2,312.3,111.2z"></path><path class="st1" d="M283.5,230.9c-8.6,0.1-15.6-6.8-15.6-15.4c0-0.8,0-1.5,0.2-2.3l0,0l0,0c0.1-2.3-0.5-3.9-1.9-4.8
		c-1.8-1.2-4.4-0.9-6.1-0.1l-27.3,12.8c-3.6,1.7-7.9,0.1-9.6-3.5l-36.9-78.6c-1.7-3.6-0.1-7.9,3.5-9.6c0,0,0,0,0,0l85.7-40.2
		c3.6-1.7,7.9-0.1,9.6,3.5l10.7,22.8c0.8,1.8,2.6,3.6,4.8,3.8c1.6,0.2,3.2-0.7,4.5-2.5l0,0l0-0.1c1.7-2.7,4.2-4.9,7.1-6.1l0,0
		c7.4-3,15.9-0.1,19.7,6.9c4.1,7.5,1.3,17-6.3,21.1c-2.9,1.6-6.3,2.2-9.6,1.7h-0.1c-2.2-0.1-3.8,0.6-4.7,1.9
		c-1.2,1.8-0.9,4.4-0.1,6.1l10.7,22.8c1.7,3.6,0.1,7.9-3.5,9.6l-25.4,11.9c-2,0.9-3.4,2.6-3.8,4.8c-0.2,1.6,0.6,3.2,2.5,4.6l0,0
		c0,0,0,0,0.1,0.1c7.3,4.5,9.5,14.1,5,21.4C293.8,228.1,288.8,230.9,283.5,230.9z M269,213.3c0,0.1,0,0.1,0,0.2
		c-0.4,2.6,0,5.3,1.1,7.8c3.2,7.1,11.4,10.5,18.7,7.6c7.5-3,11.1-11.4,8.1-18.9c-1.2-2.9-3.2-5.4-5.9-7l-0.1-0.1l0,0
		c-2.6-2-3-4.1-2.9-5.4c0.3-2.5,2.4-4.6,4.4-5.6l25.4-11.9c3.1-1.5,4.5-5.2,3-8.3c0,0,0,0,0,0l-10.7-22.8c-0.9-2-1.2-5,0.2-7.1
		c0.8-1.2,2.4-2.5,5.7-2.4l0,0c0.1,0,0.1,0,0.2,0c8,1.1,15.3-4.5,16.4-12.4c0.4-3.1-0.1-6.2-1.6-8.9c-3.6-6.5-11.5-9.3-18.4-6.5l0,0
		c-2.8,1.2-5.2,3.2-6.7,5.8v0.1l0,0c-2,2.6-4.1,3-5.5,2.9c-2.5-0.3-4.6-2.4-5.5-4.4L284,93.1c-1.5-3.1-5.2-4.5-8.3-3L190,130.4
		c-3.1,1.5-4.5,5.2-3,8.3c0,0,0,0,0,0l36.9,78.6c1.5,3.1,5.2,4.5,8.3,3l27.3-12.8c2-0.9,5-1.2,7.1,0.2
		C267.7,208.4,269.1,210,269,213.3L269,213.3z M305.4,117.2L305.4,117.2z"></path><path class="st0" d="M288.7,179.5l-32.6,15.9l-9.9-20.2c-3.3-6.8-0.5-15.1,6.3-18.4c0,0,0,0,0,0l7.8-3.8c6.8-3.3,15.1-0.5,18.4,6.3
		L288.7,179.5z"></path><path class="st0" d="M256.2,195.9c-0.1,0-0.1,0-0.2,0c-0.1,0-0.2-0.1-0.3-0.2l-9.9-20.2c-3.4-7.1-0.5-15.6,6.6-19.1l7.8-3.8
		c7.1-3.4,15.6-0.5,19.1,6.6l9.9,20.2c0.1,0.2,0,0.5-0.2,0.7c0,0,0,0,0,0l-32.6,15.9C256.3,195.9,256.2,195.9,256.2,195.9z
		 M266.5,152.1c-2,0-4,0.5-5.8,1.3l-7.8,3.8c-6.6,3.2-9.3,11.2-6.1,17.8c0,0,0,0,0,0l9.6,19.7l31.7-15.4l-9.6-19.8
		C276.2,155,271.6,152.1,266.5,152.1L266.5,152.1z"></path><circle class="st0" cx="248" cy="137.4" r="13.3"></circle><path class="st0" d="M248.1,151.1c-7.6,0-13.8-6.2-13.8-13.8c0-7.6,6.2-13.8,13.8-13.8c5.3,0,10.1,3,12.4,7.7l0,0
		c3.3,6.8,0.5,15.1-6.4,18.4C252.2,150.6,250.1,151.1,248.1,151.1z M248.1,124.6c-7.1,0-12.8,5.7-12.8,12.8s5.7,12.8,12.8,12.8
		s12.8-5.7,12.8-12.8c0-1.9-0.4-3.9-1.3-5.6l0,0c-1.5-3-4.1-5.4-7.3-6.5C250.9,124.8,249.4,124.6,248.1,124.6L248.1,124.6z"></path><path class="st0" d="M288.7,179.5l-32.6,15.9l-9.9-20.2c-3.3-6.8-0.5-15.1,6.3-18.4c0,0,0,0,0,0l7.8-3.8c6.8-3.3,15.1-0.5,18.4,6.3
		L288.7,179.5z"></path><path class="st1" d="M256.2,195.9c-0.1,0-0.1,0-0.2,0c-0.1,0-0.2-0.1-0.3-0.2l-9.9-20.2c-3.4-7.1-0.5-15.6,6.6-19.1l7.8-3.8
		c7.1-3.4,15.6-0.5,19.1,6.6l9.9,20.2c0.1,0.2,0,0.5-0.2,0.7c0,0,0,0,0,0l-32.6,15.9C256.3,195.9,256.2,195.9,256.2,195.9z
		 M266.5,152.1c-2,0-4,0.5-5.8,1.3l-7.8,3.8c-6.6,3.2-9.3,11.2-6.1,17.8c0,0,0,0,0,0l9.6,19.7l31.7-15.4l-9.6-19.8
		C276.2,155,271.6,152.1,266.5,152.1L266.5,152.1z"></path><circle class="st0" cx="248" cy="137.4" r="13.3"></circle><path class="st1" d="M248.1,151.1c-7.6,0-13.8-6.2-13.8-13.8c0-7.6,6.2-13.8,13.8-13.8c5.3,0,10.1,3,12.4,7.7l0,0
		c3.3,6.8,0.5,15.1-6.4,18.4C252.2,150.6,250.1,151.1,248.1,151.1z M248.1,124.6c-7.1,0-12.8,5.7-12.8,12.8s5.7,12.8,12.8,12.8
		s12.8-5.7,12.8-12.8c0-1.9-0.4-3.9-1.3-5.6l0,0c-1.5-3-4.1-5.4-7.3-6.5C250.9,124.8,249.4,124.6,248.1,124.6L248.1,124.6z"></path><path class="st2" d="M288.7,179.5l-32.6,15.9l-9.9-20.2c-3.3-6.8-0.5-15.1,6.3-18.4c0,0,0,0,0,0l7.8-3.8c6.8-3.3,15.1-0.5,18.4,6.3
		L288.7,179.5z"></path><path class="st2" d="M256.2,195.9c-0.1,0-0.1,0-0.2,0c-0.1,0-0.2-0.1-0.3-0.2l-9.9-20.2c-3.4-7.1-0.5-15.6,6.6-19.1l7.8-3.8
		c7.1-3.4,15.6-0.5,19.1,6.6l9.9,20.2c0.1,0.2,0,0.5-0.2,0.7c0,0,0,0,0,0l-32.6,15.9C256.3,195.9,256.2,195.9,256.2,195.9z
		 M266.5,152.1c-2,0-4,0.5-5.8,1.3l-7.8,3.8c-6.6,3.2-9.3,11.2-6.1,17.8c0,0,0,0,0,0l9.6,19.7l31.7-15.4l-9.6-19.8
		C276.2,155,271.6,152.1,266.5,152.1L266.5,152.1z"></path><circle class="st2" cx="248" cy="137.4" r="13.3"></circle><path class="st2" d="M248.1,151.1c-7.6,0-13.8-6.2-13.8-13.8c0-7.6,6.2-13.8,13.8-13.8c5.3,0,10.1,3,12.4,7.7l0,0
		c3.3,6.8,0.5,15.1-6.4,18.4C252.2,150.6,250.1,151.1,248.1,151.1z M248.1,124.6c-7.1,0-12.8,5.7-12.8,12.8s5.7,12.8,12.8,12.8
		s12.8-5.7,12.8-12.8c0-1.9-0.4-3.9-1.3-5.6l0,0c-1.5-3-4.1-5.4-7.3-6.5C250.9,124.8,249.4,124.6,248.1,124.6L248.1,124.6z"></path><path class="st0" d="M185.6,188.7c8.6-7,14.1-15.8,14.9-20.2l4.1,8.7c2.6-1.9,4.8-4.2,6.5-6.9c2.7-4.3,4.9-6.1,7-5.9
		s1.9,8.5-7.3,16.2c2.6-2,4.9-4.3,7-6.9c3-4,4.3-4.9,6.1-4.4s0.6,5.9-2.4,10c-2.3,2.9-4.8,5.6-7.7,7.9c2.8-1.4,5.3-3.3,7.5-5.5
		c3.9-3.8,5.1-4.9,6.4-4.2s0,4.9-3.9,8.4s-6.9,6.7-6.9,6.7s1.7-0.1,5-2.4s4.7-2.9,5.5-2.3s-1,6.6-7.1,10.2s-14.5,7.9-21.5,7.5
		c0,0-12.9-2.6-14.4-14.2C184.3,190.5,184.8,189.4,185.6,188.7z"></path><path class="st1" d="M199.9,206.2c-0.3,0-0.7,0-1,0s-13.4-2.9-14.9-14.6c-0.1-1.2,0.4-2.5,1.3-3.2l0,0c8.2-6.7,13.9-15.4,14.7-19.9
		c0.1-0.3,0.3-0.5,0.6-0.4c0.2,0,0.3,0.1,0.4,0.3l3.8,8.2c2.3-1.8,4.3-3.9,5.9-6.4c2.8-4.4,5.1-6.3,7.5-6.2c0.4,0,1,0.2,1.4,1.3
		c0.5,1.5,0.2,4.2-1.4,7.3c2.5-3.1,3.9-4.2,5.9-3.7c0.5,0.1,0.9,0.5,1,1c0.7,1.9-0.7,6.4-3.1,9.8c-1,1.4-2.2,2.8-3.4,4
		c0.8-0.7,1.7-1.4,2.4-2.1c3.7-3.6,5.2-5.1,7-4.2c0.4,0.2,0.7,0.7,0.8,1.2c0.2,1.7-1.2,5-4.5,8.1c-2.2,2.1-4.2,4-5.4,5.2
		c1-0.5,2-1,2.9-1.7c3.3-2.2,5-3.1,6.1-2.3c0.3,0.3,0.5,0.8,0.4,1.2c-0.1,1.8-2.1,6.6-7.6,9.8C214.6,202.2,206.8,206.2,199.9,206.2z
		 M185.9,189.1c-0.7,0.6-1.1,1.4-1,2.3c1.5,11.1,13.9,13.8,14,13.8c6.8,0.4,14.9-3.8,21.2-7.4c5.9-3.4,7.4-8.8,7-9.4
		c-0.6-0.4-2.3,0.6-4.9,2.3c-3.3,2.3-5.1,2.4-5.2,2.4c-0.2,0-0.4-0.1-0.5-0.3c-0.1-0.2-0.1-0.4,0.1-0.6c0,0,3.1-3.2,6.9-6.7
		c3.2-3,4.4-6,4.2-7.2c0-0.2-0.1-0.3-0.2-0.4c-1-0.5-2,0.3-5.9,4.1c-2.2,2.2-4.8,4.1-7.6,5.6c-0.2,0.1-0.5,0.1-0.7-0.2
		s-0.1-0.5,0.2-0.7l0,0c2.8-2.3,5.4-5,7.6-7.9c2.4-3.3,3.5-7.4,3-8.8c-0.1-0.3-0.3-0.3-0.3-0.4c-1.4-0.3-2.5,0.3-5.6,4.2
		c-2.1,2.6-4.4,5-7.1,7c-0.2,0.2-0.5,0.1-0.7-0.1c-0.2-0.2-0.1-0.5,0.1-0.7c7.6-6.3,8.7-12.8,8.1-14.7c-0.1-0.2-0.2-0.6-0.5-0.6
		c-2-0.1-4,1.6-6.6,5.7c-1.8,2.8-4,5.2-6.7,7.1c-0.1,0.1-0.3,0.1-0.4,0.1c-0.1,0-0.3-0.1-0.3-0.3l-3.5-7.4
		C199,174.9,193.5,182.9,185.9,189.1L185.9,189.1z"></path><path class="st0" d="M234.2,100.1c7.9-4.4,18.7-7,24.3-5.1s7,6.2,4.6,7.9s-5.1-3.2-10.1-4.8c1.9,1.7,3.5,3.6,4.7,5.8
		c1.5,3-0.4,6-2.5,5s-4.3-7.1-7.1-8.2c1.5,2,2.8,4.2,4,6.3c1.4,2.8-1.2,6.3-3,5.1s-3.4-6-5.6-7.5c0,0,2.9,5,2.5,8.7s-4.8,3.5-5.5,0
		c-0.5-2.2-1.4-4.2-2.6-6l-4.2,2C233.2,106.3,233.3,103.1,234.2,100.1z"></path><path class="st1" d="M243.6,116.6c-1.8-0.1-3.2-1.4-3.5-3.1c-0.4-2-1.2-3.8-2.3-5.5l-3.8,1.8c-0.1,0.1-0.3,0.1-0.4,0
		c-0.1-0.1-0.2-0.2-0.3-0.3c-0.6-3.1-0.5-6.4,0.5-9.4c0-0.1,0.1-0.2,0.2-0.3c8.5-4.8,19.1-7,24.7-5.2c4,1.3,5.7,3.7,6,5.5
		c0.2,1.2-0.3,2.5-1.3,3.2c-1.6,1.2-3.3-0.1-5.3-1.6c-0.9-0.7-1.7-1.3-2.7-1.9c1.1,1.2,2,2.4,2.8,3.8c1,1.6,0.8,3.7-0.4,5.2
		c-0.7,0.8-1.8,1-2.7,0.5c-1.1-0.8-2-1.8-2.7-3.1l0.3,0.5c0.9,1.8,0.5,4-1,5.3c-0.7,0.8-1.8,1-2.8,0.5c-1-0.6-1.8-2-2.7-3.6
		c-0.2-0.3-0.4-0.7-0.6-1c0.7,1.7,1,3.6,0.9,5.4c0,1.7-1.3,3-2.9,3.2L243.6,116.6z M238,106.8c0.2,0,0.3,0.1,0.4,0.2
		c1.3,1.9,2.2,4,2.7,6.3c0.2,1.3,1.3,2.3,2.6,2.3c0.8,0,1.8-0.7,2-2.3c0.4-3.6-2.4-8.4-2.4-8.4c-0.1-0.2-0.1-0.5,0.1-0.6
		c0.2-0.1,0.4-0.2,0.6-0.1c1.3,0.9,2.3,2.6,3.2,4.3c0.6,1.2,1.4,2.3,2.3,3.2c0.6,0.4,1.3-0.1,1.5-0.4c1.1-1.1,1.4-2.7,0.8-4.1
		c-1.2-2.2-2.5-4.3-4-6.3c-0.2-0.2-0.1-0.6,0.1-0.7c0.1-0.1,0.3-0.1,0.5-0.1c1.7,0.7,3,2.8,4.4,4.8c0.9,1.5,1.9,3,2.7,3.4
		c0.5,0.3,1.2,0.2,1.5-0.3c0.9-1.2,1-2.8,0.2-4.1c-1.2-2.1-2.8-4-4.6-5.6c-0.2-0.2-0.2-0.4-0.1-0.6c0.1-0.2,0.4-0.3,0.6-0.2
		c2,0.8,3.9,1.9,5.5,3.3c2,1.5,3.1,2.3,4.1,1.6c0.7-0.5,1-1.4,0.9-2.3c-0.2-1.5-1.8-3.6-5.4-4.8c-5.2-1.7-15.6,0.5-23.7,5
		c-0.8,2.6-0.9,5.4-0.5,8.1l3.6-1.7C237.8,106.8,237.9,106.8,238,106.8z"></path><path class="st1" d="M144.7,205c-0.1,0-0.3-0.1-0.4-0.2l-30.1-33.4c-0.2-0.2-0.2-0.5,0-0.7c0,0,0,0,0,0c0.2-0.2,0.5-0.2,0.7,0
		c0,0,0,0,0,0l29.8,33.1c3.1-1.4,26.5-12.4,31.3-14.7c5.2-2.5,8.3-2,8.4-1.9c0.3,0,0.5,0.3,0.4,0.6c0,0.3-0.3,0.5-0.6,0.4
		c0,0-2.9-0.5-7.8,1.9c-5.1,2.4-31.3,14.7-31.6,14.8C144.9,205,144.8,205,144.7,205z"></path><path class="st1" d="M146.3,236.4c-14,0-22.7-5.6-31.3-12.4c-11.2-8.8-20.6-23.2-20.7-23.4c-0.2-0.2-0.1-0.5,0.1-0.7
		c0.2-0.2,0.5-0.1,0.7,0.1c0.1,0.1,9.4,14.4,20.5,23.1c12.1,9.5,24.3,16.7,51.6,8.8c31.3-9.1,33.2-19.3,32.6-23.2
		c0-0.3,0.1-0.5,0.4-0.6c0.3,0,0.5,0.2,0.6,0.4c0.7,4.2-1.2,15.1-33.3,24.4C160.6,235.1,153.5,236.2,146.3,236.4z"></path><path class="st1" d="M94.7,212.4c-0.1,0-0.2,0-0.2-0.1c-0.2-0.1-0.3-0.4-0.2-0.7c0,0,0,0,0,0c1.2-2.3,3.5-3.8,6.1-4
		c0.3,0,0.5,0.2,0.5,0.4c0,0,0,0,0,0c0,0.3-0.2,0.5-0.5,0.5c-2.2,0.2-4.2,1.5-5.2,3.5C95.1,212.3,94.9,212.4,94.7,212.4z"></path><path class="st1" d="M186,137.3c-0.2,0-0.4-0.1-0.5-0.3c-1.9-5.4-4.2-10.6-7.1-15.5c-0.1-0.2-0.1-0.5,0.2-0.7
		c0.2-0.1,0.5-0.1,0.7,0.2l0,0c2.9,5,5.3,10.2,7.2,15.7c0.1,0.3-0.1,0.5-0.3,0.6L186,137.3z"></path><path class="st0" d="M119.1,121.2c1.9,9.8,9.6,35,0.3,48.2s-35.8,9-35-12.9s31.1-38.1,31.1-38.1L119.1,121.2z"></path><path class="st1" d="M103.9,177.4c-2.4,0-4.7-0.4-7-1.1c-8.5-2.9-13.3-10.2-13-19.8c0.8-22,31.1-38.4,31.4-38.5
		c0.2-0.1,0.4-0.1,0.6,0l3.6,2.9c0.1,0.1,0.2,0.2,0.2,0.3c0.3,1.4,0.6,3.1,1.1,5c2.7,12,7.2,32.1-0.9,43.5
		C116.4,174.6,110.2,177.4,103.9,177.4z M115.5,119c-3.1,1.7-29.9,17.2-30.6,37.5c-0.3,9.1,4.3,16.1,12.3,18.8s17.3,0.1,21.8-6.2
		c7.8-11.1,3.4-30.9,0.7-42.8c-0.4-1.9-0.8-3.5-1-4.8L115.5,119z"></path><path class="st3" d="M121.6,123.5c1.4,2.3-2.2,6.6-7.7,5.7s-10.8-5.7-5.4-9.8S121.6,123.5,121.6,123.5z"></path><path class="st1" d="M115.4,129.8c-0.5,0-1,0-1.6-0.1c-3.9-0.6-7.3-3-8-5.7c-0.3-1.3-0.2-3.2,2.4-5.1c5.8-4.3,13.4,3.8,13.7,4.2
		l0.1,0.1c0.6,1.2,0.4,2.5-0.4,3.6C120.1,128.8,117.8,129.9,115.4,129.8z M112,118.7c-1.1,0-2.2,0.3-3.1,1c-1.7,1.2-2.3,2.6-2,4
		c0.6,2.2,3.7,4.4,7.2,4.9c2.6,0.5,5.2-0.4,6.8-2.5c0.6-0.7,0.7-1.6,0.4-2.4C120.7,123.3,116.2,118.7,112,118.7z"></path><path class="st0" d="M123.9,54.2c10.4-14.5,33.1-0.4,35.2,22.8s-30.4,41.4-30.4,41.4l-9.1,6.4c0,0-8.6,0.8-11.8-3.1
		s-5.3-16.6-8.4-27.8S95,62,123.9,54.2z"></path><path class="st1" d="M117.7,125.5c-2.8,0-7.9-0.4-10.3-3.4s-4-9.7-5.9-17.7c-0.8-3.4-1.7-6.9-2.6-10.3c-1.8-6.6-3-16.3,1.8-24.9
		c4.1-7.2,11.8-12.4,22.8-15.4c3.4-5,9.6-7.2,15.4-5.4c9.2,2.5,19.2,13.1,20.6,28.6c2.1,23.3-30.3,41.8-30.6,41.9l-9.1,6.4
		c-0.1,0-0.2,0.1-0.2,0.1C119.6,125.4,118.8,125.5,117.7,125.5z M134.7,48.8c-4.2,0-8.2,2.2-10.5,5.7c-0.1,0.1-0.2,0.2-0.3,0.2
		c-10.9,3-18.4,8-22.4,15c-4.6,8.3-3.5,17.7-1.7,24.1c1,3.4,1.8,7,2.6,10.4c1.8,7.5,3.5,14.6,5.7,17.3c2.8,3.4,10.2,3,11.2,3l9-6.3
		c0.4-0.2,32.2-18.4,30.2-41c-1.4-15.1-11-25.4-19.9-27.8C137.4,49,136.1,48.8,134.7,48.8L134.7,48.8z M123.9,54.2L123.9,54.2z"></path><path class="st0" d="M121.8,107.9c1.6,9.1,2.6,19.9,2.6,19.9s4.1,8,13.2,6.8s7.6-8.9,7.2-10.5s-2.8-6.3-3.4-8
		S121.8,107.9,121.8,107.9z"></path><path class="st1" d="M135.7,135.2c-8,0-11.7-7.1-11.8-7.2c0-0.1-0.1-0.1-0.1-0.2c0-0.1-1-10.9-2.6-19.9c0-0.3,0.1-0.5,0.4-0.6
		c0.1,0,0.2,0,0.2,0c5.8,2,19.3,6.8,20,8.5c0.2,0.7,0.8,1.8,1.4,3.1c0.8,1.6,1.5,3.3,2.1,5c0.3,1.3,0.9,4.8-1,7.5
		c-1.3,1.9-3.6,3.1-6.6,3.6C137,135.2,136.3,135.2,135.7,135.2z M124.8,127.6c0.5,0.9,4.4,7.5,12.6,6.4c2.8-0.4,4.8-1.4,6-3.1
		c1.7-2.4,1.2-5.5,0.9-6.7c-0.6-1.6-1.2-3.2-2-4.8c-0.6-1.3-1.1-2.5-1.4-3.2c-0.6-1-9.7-4.6-18.5-7.6
		C123.8,117,124.8,126.5,124.8,127.6z"></path><path class="st0" d="M149,71c0,0,15.8,19.9,9.9,32.4s-29.6,19-41.7,6.3c0,0-2.8,6.9-8.7,2.7s-3-12,4.3-11.4c0,0,0.2-7,10.2-14.9
		s13.4-17.3,13.4-17.3S140,72,149,71z"></path><path class="st1" d="M134.4,117c-6.3,0.2-12.5-2.2-17.1-6.5c-0.8,1.6-2.2,2.9-3.9,3.5c-1.8,0.4-3.8,0-5.2-1.2c-2.8-2-4-5.1-3-8
		s3.7-4.4,7.2-4.3c0.2-1.8,1.7-7.9,10.4-14.8c5.8-4.5,10.3-10.3,13.2-17c0.1-0.2,0.2-0.3,0.4-0.3c0.2,0,0.3,0,0.5,0.1
		c0,0,3.4,3,12.1,2.1c0.2,0,0.3,0,0.4,0.2c2.8,3.6,5.2,7.5,7.2,11.6c4.3,8.8,5.2,16,2.7,21.3c-3.1,6.5-10.9,11.6-19.9,13
		C137.8,116.9,136.1,117,134.4,117z M117.2,109.1c0.1,0,0.3,0.1,0.4,0.2c5.2,5.4,13.1,7.7,21.7,6.3s16.3-6.3,19.2-12.5
		c5.4-11.4-8-29.4-9.7-31.6c-7.1,0.7-10.7-1.1-12-2c-3,6.6-7.6,12.4-13.3,16.9c-9.7,7.7-10,14.5-10,14.5c0,0.1-0.1,0.3-0.2,0.4
		c-0.1,0.1-0.2,0.1-0.4,0.1c-3.1-0.2-5.7,1.2-6.6,3.7c-0.7,1.9-0.4,4.7,2.6,6.8c1.2,1,2.8,1.4,4.4,1.1c2.4-0.7,3.6-3.6,3.6-3.6
		C116.9,109.2,117.1,109.1,117.2,109.1L117.2,109.1z"></path><path class="st1" d="M132.1,89c-0.7-0.1-1.4-0.2-2.1-0.2c-0.7,0-1.4,0.1-2,0.4c-0.6,0.3-1.2,0.6-1.7,1.1c-0.3,0.2-0.5,0.5-0.8,0.8
		s-0.4,0.6-0.7,0.9l-0.1,0.1c-0.2,0.2-0.5,0.2-0.7,0c-0.1-0.1-0.2-0.3-0.1-0.5c0.1-0.4,0.3-0.8,0.5-1.2c0.2-0.4,0.5-0.8,0.7-1.1
		c0.6-0.7,1.3-1.3,2.2-1.6c0.9-0.3,1.8-0.5,2.7-0.4c0.9,0.1,1.7,0.4,2.5,0.9c0.2,0.1,0.3,0.4,0.2,0.7C132.6,89,132.3,89.1,132.1,89
		L132.1,89z"></path><path class="st1" d="M150.4,78.5c-0.3-0.1-0.7-0.1-1-0.1c-0.4,0-0.8,0.1-1.2,0.2c-0.8,0.2-1.5,0.5-2.2,0.9c-0.7,0.4-1.3,1-1.9,1.6
		c-0.6,0.6-1.1,1.3-1.6,2l0,0c-0.2,0.2-0.5,0.3-0.7,0.1c0,0,0,0,0,0c-0.2-0.1-0.2-0.4-0.2-0.6c0.3-0.9,0.7-1.8,1.3-2.6
		c0.6-0.8,1.3-1.5,2.2-2c0.9-0.5,1.8-0.9,2.8-1c0.5-0.1,1-0.1,1.5,0c0.6,0.1,1.1,0.3,1.5,0.7c0.2,0.2,0.2,0.5,0,0.7
		c-0.1,0.1-0.3,0.2-0.5,0.1L150.4,78.5z"></path><path class="st1" d="M147.2,96.1c-1.5,0.1-2.9-0.8-3.5-2.2c-0.1-0.3,0-0.5,0.3-0.7c0.3-0.1,0.5,0,0.6,0.3c0.6,1.3,2,1.9,3.4,1.4
		c1-0.2,1.6-1.2,1.3-2.2c0,0,0-0.1,0-0.1c-0.1-0.5-0.4-0.9-0.8-1.1c-1-0.6-2.8-0.1-3.4,0.2c-0.2,0.1-0.5,0-0.6-0.2
		c-1.2-2.7-2.2-5.6-2.9-8.5c-0.1-0.3,0.1-0.6,0.4-0.6c0.3-0.1,0.6,0.1,0.6,0.4c0.7,2.7,1.6,5.4,2.7,7.9c1.2-0.5,2.6-0.5,3.8,0
		c0.7,0.4,1.2,1,1.3,1.8c0.4,1.5-0.4,3-1.9,3.4c0,0-0.1,0-0.1,0C148,96,147.6,96.1,147.2,96.1z"></path><path class="st1" d="M131.8,94.1c0.1,1.5,1.1,2.6,2.1,2.5s1.7-1.4,1.6-2.8c0-0.4-0.2-0.8-0.3-1.2l-1.7,1.1l0.6-2.2
		c-0.2-0.1-0.5-0.2-0.7-0.1C132.4,91.3,131.7,92.6,131.8,94.1z"></path><path class="st1" d="M149,83.5c0,1.5,0.8,2.7,1.8,2.7s1.9-1.2,1.9-2.7c0-0.4-0.1-0.8-0.2-1.2l-1.8,0.9l0.8-2.2
		c-0.2-0.1-0.5-0.2-0.7-0.2C149.9,80.9,149,82.1,149,83.5z"></path><path class="st1" d="M108.3,108.7c-0.3,0-0.5-0.2-0.5-0.5c-0.1-1.1,0.2-2.3,1-3.2c1.1-1,2.4-1.5,3.9-1.4c0.3,0,0.5,0.2,0.5,0.5
		c0,0,0,0,0,0c0,0.3-0.2,0.5-0.5,0.5c0,0,0,0,0,0c-1.1,0-2.3,0.4-3.1,1.1c-0.6,0.7-0.8,1.5-0.7,2.4
		C108.8,108.4,108.6,108.6,108.3,108.7L108.3,108.7z"></path><path class="st1" d="M112.7,110.7c-0.9,0-1.7-0.4-2.3-1c-1.1-1.2-1.8-2.7-1.9-4.3c0-0.3,0.2-0.5,0.5-0.5c0,0,0,0,0,0
		c0.3,0,0.5,0.2,0.5,0.5c0,0,0,0,0,0c0.1,1.3,0.7,2.6,1.6,3.5c0.5,0.5,1.1,0.7,1.8,0.7c0.3,0,0.5,0.2,0.6,0.4s-0.2,0.5-0.4,0.6
		L112.7,110.7z"></path><path class="st1" d="M144.2,105.2c-1.5,0-2.8-0.8-3.5-2.1c-0.1-0.1-0.1-0.3,0-0.4c0-0.1,0.1-0.2,0.3-0.3l8.4-3.6
		c0.2-0.1,0.4,0,0.5,0.1c0.1,0.1,0.2,0.3,0.2,0.5c-0.7,3.6-3.1,5.5-5.2,5.8C144.6,105.2,144.4,105.2,144.2,105.2z M141.9,103.1
		c0.6,0.9,1.7,1.3,2.8,1.1c2-0.5,3.6-2,4.1-4L141.9,103.1z"></path><path class="st3" d="M193.9,421.6l2.1,31.8c0.1,2.2,2.1,3.9,4.3,3.8l58.7-3.4c2.2-0.1,3.9-2,3.8-4.2c0-0.2,0-0.5-0.1-0.7l-0.3-1.4
		c0,0-5-27.4-34.2-27.5C228.2,420.1,214.1,425,193.9,421.6z"></path><path class="st1" d="M196.5,451.3c-0.3,0-0.5-0.2-0.5-0.5c0-0.3,0.2-0.5,0.5-0.5c0,0,0,0,0,0l65.1-3.8c0.3,0,0.5,0.2,0.5,0.5
		c0,0,0,0,0,0c0,0.3-0.2,0.5-0.5,0.5c0,0,0,0,0,0L196.5,451.3L196.5,451.3z"></path><path class="st1" d="M212.2,450.4c-0.2,0-0.5-0.2-0.5-0.4c-0.1-0.5-2-13.4-16.7-13.4h-0.2c-0.3,0-0.5-0.2-0.5-0.5s0.2-0.5,0.5-0.5
		h0.2c8.1,0,12.5,3.9,14.7,7.1c1.5,2.2,2.5,4.6,2.9,7.2C212.8,450.1,212.6,450.4,212.2,450.4L212.2,450.4z"></path><path class="st1" d="M234.8,432.1c-0.3,0-0.5-0.2-0.5-0.5c0-0.1,0.1-0.3,0.2-0.4l12.8-12.6c0.2-0.2,0.5-0.2,0.7,0
		c0.2,0.2,0.2,0.5,0,0.7c0,0,0,0,0,0L235.2,432C235.1,432.1,235,432.1,234.8,432.1z"></path><path class="st1" d="M228,429.9c-0.1,0-0.3-0.1-0.4-0.1c-0.2-0.2-0.2-0.5,0-0.7c0,0,0,0,0,0l12.8-12.6c0.2-0.2,0.5-0.2,0.7,0
		c0.2,0.2,0.2,0.5,0,0.7l-12.8,12.6C228.2,429.9,228.1,429.9,228,429.9z"></path><path class="st3" d="M74,402.1L63,432c-0.8,2.1,0.3,4.4,2.4,5.2l55,20.8c2.1,0.8,4.4-0.3,5.2-2.4c0.1-0.2,0.1-0.3,0.2-0.5l0.3-1.4
		c0,0,6.7-27-20-39C106,414.7,91.1,413.3,74,402.1z"></path><path class="st1" d="M125.5,453.4c-0.1,0-0.1,0-0.2,0l-61-23.1c-0.3-0.1-0.4-0.4-0.3-0.6c0.1-0.3,0.4-0.4,0.6-0.3l61,23.1
		c0.3,0.1,0.4,0.4,0.3,0.6c0,0,0,0,0,0C125.9,453.3,125.7,453.4,125.5,453.4z"></path><path class="st1" d="M79.2,435.9c0,0-0.1,0-0.1,0c-0.3-0.1-0.4-0.4-0.3-0.6c0.2-0.5,3.7-13.2-9.9-19.1c-0.3-0.1-0.4-0.4-0.2-0.7
		c0.1-0.2,0.4-0.4,0.7-0.3c7.6,3.3,10,8.7,10.7,12.6c0.5,2.6,0.4,5.2-0.2,7.8C79.6,435.7,79.4,435.9,79.2,435.9z"></path><path class="st1" d="M107.3,428.4c-0.2,0-0.4-0.1-0.5-0.3c-0.1-0.3,0-0.5,0.3-0.6l16.8-6.3c0.3-0.1,0.5,0,0.6,0.3
		c0.1,0.3,0,0.5-0.3,0.6c0,0,0,0,0,0l-16.8,6.3C107.5,428.3,107.4,428.4,107.3,428.4z"></path><path class="st1" d="M102,423.6c-0.2,0-0.4-0.1-0.5-0.3c-0.1-0.3,0-0.5,0.3-0.6l16.8-6.3c0.3-0.1,0.5,0,0.6,0.3
		c0.1,0.3,0,0.5-0.3,0.6c0,0,0,0,0,0l-16.8,6.3C102.1,423.6,102.1,423.6,102,423.6z"></path></g></svg>