<svg transform="scale(1)" version="1.1" id="_x30_067_x5F_problem_x5F_solving_x5F_5" xmlns="http://www.w3.org/2000/svg" xmlns:xlink="http://www.w3.org/1999/xlink" x="0px" y="0px" viewBox="0 0 500 500" xml:space="preserve" class="show_show__wrapper__graphic__5Waiy "><title>React</title><style type="text/css">
	.st0{fill:#FFFFFF;}
	.st1{fill:#a97beb;}
	.st2{fill:#5c27a9;}
</style><g id="puzzle-2"><g id="Layer_31"><path class="st0" d="M467.3,350.4c2.2,0,4,1.8,4,4v53.2c0,2.7-2.2,4.9-4.9,4.9l-55.1-0.1h-29.7c-2.7,0-4.9-2.2-4.9-4.9v-10.9
			c0-2.6,1.6-4.8,4-5.7l7.2-2.6c4.2-1.5,6.3-6.1,4.8-10.3c-0.8-2.2-2.5-3.9-4.7-4.7l-7.3-2.7c-2.4-0.8-4-3.1-4-5.7V355
			c0-2.6,2.1-4.6,4.6-4.6c0,0,0,0,0,0H467.3z"></path><path class="st1" d="M466.5,412.9l-55.1-0.1h-29.7c-3,0-5.4-2.4-5.4-5.4v-10.8c0-2.8,1.7-5.2,4.4-6.2l7.2-2.5
			c1.5-0.5,2.7-1.5,3.6-2.8c0.9-1.3,1.4-2.8,1.4-4.3c0-3.1-2-5.9-4.9-7l-7.4-2.7c-2.6-1-4.3-3.4-4.3-6.1V355c0-2.8,2.3-5.1,5.1-5.1
			h85.9c2.5,0,4.5,2,4.5,4.5v53.2C471.8,410.5,469.4,412.9,466.5,412.9z M381.5,350.9c-2.3,0-4.1,1.9-4.1,4.1v9.9
			c0,2.3,1.5,4.4,3.6,5.2l7.4,2.7c3.3,1.2,5.6,4.4,5.5,8c0,1.8-0.5,3.5-1.5,4.9c-1,1.4-2.4,2.5-4.1,3.1l-7.2,2.5
			c-2.2,0.8-3.7,2.9-3.7,5.2v10.8c0,2.4,2,4.4,4.4,4.4h29.7l55.1,0.1c2.4,0,4.4-2,4.4-4.4v-53.2c0-1.9-1.6-3.5-3.5-3.5H381.5z"></path><path class="st2" d="M454.8,318.9c0,3.4,2.1,6.4,5.3,7.5l7.2,2.6c2.4,0.9,4,3.1,4,5.7v10.8c0,2.7-2.2,4.9-4.9,4.9h-29.6
			c-1.8,0-3.5,0.9-4.4,2.5c-1.1,1.7-1.7,3.8-1.7,5.8c0,5,4.6,5.3,4.5,12s-6.1,10.8-13.3,10.8s-12.3-6.8-12.1-12.1s3.4-7.1,3.6-10.1
			c0.1-1.6-1-4-2-6c-0.9-1.7-2.7-2.8-4.6-2.8h-25c-0.3,0-0.6,0-0.9-0.1c-2.3-0.4-3.9-2.4-3.9-4.7v-9.9c0-2.5-1.6-4.8-4-5.7l-7.4-2.7
			c-4.1-1.5-6.3-6.1-4.7-10.3c0.2-0.6,0.6-1.2,0.9-1.8c1-1.3,2.3-2.4,3.9-2.9l7.2-2.6c2.4-0.9,4-3.1,4-5.7v-12
			c0-2.1,1.7-3.7,3.7-3.7h86.1c2.6,0,4.6,2.1,4.6,4.6l0,0v10c0,2.5-1.6,4.8-4,5.7l-7.3,2.7C456.9,312.5,454.8,315.5,454.8,318.9z"></path><path class="st1" d="M421.8,382c-3.4,0-6.6-1.4-8.9-3.9c-2.3-2.3-3.7-5.5-3.8-8.8c0.1-2.4,0.9-4.8,2.2-6.8c0.7-1,1.2-2.1,1.3-3.2
			c0-1.2-0.6-3.2-1.9-5.7c-0.8-1.5-2.4-2.5-4.1-2.5h-25c-0.3,0-0.7,0-1-0.1c-2.5-0.5-4.3-2.6-4.3-5.2v-9.9c0-2.3-1.4-4.4-3.6-5.2
			l-7.4-2.7c-4.4-1.6-6.7-6.5-5.1-10.9c0.9-2.4,2.8-4.3,5.2-5.1l7.2-2.6c2.2-0.8,3.7-2.9,3.7-5.2v-12c0-2.3,1.9-4.2,4.2-4.2h86.1
			c2.8,0,5.1,2.3,5.1,5.1l0,0v10c0,2.7-1.7,5.2-4.3,6.1l-7.4,2.7c-2.9,1.1-4.9,3.9-4.9,7c0,3.2,2,6,5,7l7.2,2.6
			c2.6,0.9,4.4,3.4,4.4,6.2v10.8c0,3-2.4,5.4-5.4,5.4h-29.7c-1.6,0-3.2,0.8-4,2.2c-1.1,1.7-1.6,3.6-1.7,5.6c0,1.8,0.7,3.4,1.9,4.7
			c1.7,2,2.6,4.6,2.5,7.3C435.5,377.3,429.8,382,421.8,382z M380.5,289c-1.8,0-3.2,1.5-3.2,3.2v12c0,2.8-1.7,5.2-4.4,6.2l-7.2,2.6
			c-3.9,1.4-5.9,5.7-4.5,9.6c0.7,2.1,2.4,3.7,4.5,4.5l7.4,2.7c2.6,1,4.3,3.4,4.3,6.1v9.9c0,2.1,1.5,3.8,3.5,4.2
			c0.3,0.1,0.6,0.1,0.8,0.1h25c2.1,0,4,1.2,5,3.1c1.4,2.7,2.1,4.8,2,6.2c-0.2,1.3-0.7,2.6-1.5,3.7c-1.3,1.9-2,4.1-2.1,6.4
			c0.1,3,1.3,5.9,3.5,8.1c2.1,2.2,5.1,3.5,8.2,3.6c7.4,0,12.7-4.2,12.8-10.3c0.1-2.4-0.7-4.8-2.3-6.6c-1.3-1.5-2.1-3.4-2.1-5.3
			c0-2.2,0.6-4.3,1.8-6.1c1-1.7,2.9-2.7,4.8-2.7h29.7c2.4,0,4.4-2,4.4-4.4v-10.9c0-2.4-1.5-4.4-3.7-5.2l-7.2-2.6
			c-4.4-1.6-6.8-6.4-5.2-10.8c0.8-2.4,2.7-4.3,5.1-5.2l7.4-2.7c2.2-0.8,3.6-2.9,3.6-5.2V293c0-2.3-1.8-4.1-4.1-4.1l0,0L380.5,289z"></path><path class="st0" d="M361.7,315.3c-2.5,3.6-1.7,8.6,2,11.1c0.6,0.4,1.2,0.7,1.8,0.9l7.4,2.7c2.4,0.8,4,3.1,4,5.7v9.9
			c0,2.4-1.8,4.4-4.1,4.6h-0.5H286c-2.1,0-3.7-1.7-3.7-3.7v-53.5c0-2.7,2.2-4.9,4.8-4.9c0,0,0,0,0,0h21.6v0.1h63.2
			c2.7,0,4.9,2.2,4.9,4.9v10.8c0,2.6-1.6,4.8-4,5.7l-7.2,2.6C364,313,362.7,314,361.7,315.3z"></path><path class="st1" d="M372.2,350.9H286c-2.3,0-4.2-1.9-4.2-4.2v-53.5c0-3,2.4-5.4,5.4-5.4h21.6c0.1,0,0.3,0,0.4,0.1h62.8
			c3,0,5.4,2.4,5.4,5.4v10.8c0,2.8-1.7,5.2-4.4,6.2l-7.2,2.6c-1.5,0.5-2.7,1.5-3.6,2.7c-0.9,1.3-1.4,2.8-1.4,4.3c0,3.1,2,5.9,4.9,7
			l7.4,2.7c2.6,1,4.3,3.4,4.3,6.1v9.9c0,2.6-2,4.8-4.6,5.1L372.2,350.9z M287.2,288.8c-2.4,0-4.4,2-4.4,4.4v53.5
			c0,1.8,1.4,3.2,3.2,3.2h86.1h0.5c2.1-0.2,3.7-2,3.7-4.1v-9.9c0-2.3-1.4-4.4-3.6-5.2l-7.4-2.7c-4.4-1.6-6.6-6.5-5-10.9
			c0.3-0.7,0.6-1.4,1-2l0,0c1-1.4,2.4-2.5,4.1-3.1l7.2-2.6c2.2-0.8,3.7-2.9,3.7-5.2v-10.9c0-2.4-2-4.4-4.4-4.4h-63.2
			c-0.1,0-0.3,0-0.4-0.1H287.2z"></path><path class="st0" d="M471.3,226.3v57.2c0,2.7-2.2,4.9-4.9,4.9h-25c-0.3,0-0.5,0-0.8,0.1c-1.6,0.2-3.1,1.3-3.8,2.7
			c-1,1.9-2,4.3-2,5.9c0.1,3,3.4,4.8,3.5,10.1s-4.9,12.1-12.1,12.1s-13.2-4.2-13.3-10.8s4.4-7,4.4-12c0-2.1-0.6-4.1-1.7-5.8
			c-0.7-1.1-1.7-1.9-2.9-2.3c-0.5-0.1-1-0.2-1.5-0.2h-29.6c-2.7,0-4.9-2.2-4.9-4.9v-4h-0.1v-5.4c0-1.9-1.1-3.7-2.8-4.6
			c-1.9-1-4.3-2-6-2c-3,0.1-4.7,3.4-10.1,3.5c-1,0-2-0.1-2.9-0.4c-4.6-1.3-9.2-5.8-9.2-11.8c0-6.7,3.5-12.2,9.2-13.2
			c0.5-0.1,1.1-0.2,1.6-0.2c6.7-0.2,7,4.4,12,4.4c2.1,0,4.1-0.6,5.8-1.7c1.5-0.9,2.5-2.6,2.5-4.4v-12.8c0-2.6,2.1-4.6,4.6-4.6
			c0,0,0,0,0,0H471.3z"></path><path class="st1" d="M426.3,319.9c-8,0-13.7-4.6-13.8-11.3c-0.1-2.7,0.8-5.3,2.5-7.3c1.2-1.3,1.9-3,1.9-4.7c0-2-0.6-3.9-1.6-5.6
			c-0.6-1-1.6-1.7-2.7-2c-0.4-0.1-0.9-0.2-1.3-0.2h-29.7c-3,0-5.4-2.4-5.4-5.4v-3.7c-0.1-0.1-0.1-0.2-0.1-0.4V274
			c0-1.7-1-3.3-2.5-4.1c-2.5-1.3-4.5-2-5.7-1.9c-1.2,0.2-2.3,0.6-3.2,1.3c-2,1.4-4.4,2.1-6.8,2.2c-1,0-2.1-0.1-3.1-0.4
			c-4.8-1.4-9.6-6-9.6-12.2c0-7.2,3.9-12.7,9.6-13.7c0.6-0.1,1.1-0.1,1.7-0.2c2.7-0.1,5.3,0.8,7.3,2.5c1.3,1.2,3,1.9,4.7,1.9
			c2,0,3.9-0.6,5.6-1.6c1.4-0.8,2.2-2.4,2.2-4v-12.9c0-2.8,2.3-5.1,5.1-5.1l0,0h89.9c0.3,0,0.5,0.2,0.5,0.5v57.2
			c0,3-2.4,5.4-5.4,5.4h-25c-0.2,0-0.5,0-0.7,0c-1.5,0.2-2.8,1.1-3.5,2.5c-1.3,2.5-2,4.5-1.9,5.7c0.2,1.2,0.6,2.3,1.3,3.2
			c1.4,2,2.1,4.4,2.2,6.8c-0.1,3.3-1.4,6.4-3.8,8.8C432.9,318.4,429.7,319.8,426.3,319.9z M377.1,279c0.1,0.1,0.1,0.2,0.1,0.4v4
			c0,2.4,2,4.4,4.4,4.4h29.7c0.5,0,1.1,0.1,1.6,0.2c1.3,0.4,2.5,1.3,3.2,2.5c1.2,1.8,1.8,3.9,1.8,6.1c0,2-0.8,3.9-2.1,5.3
			c-1.6,1.8-2.4,4.2-2.3,6.7c0.1,6.1,5.4,10.3,12.8,10.3c3.1,0,6.1-1.3,8.2-3.6c2.2-2.1,3.4-5,3.5-8c-0.1-2.3-0.8-4.5-2.1-6.4
			c-0.8-1.1-1.3-2.4-1.5-3.7c-0.1-1.4,0.6-3.5,2-6.2c0.8-1.6,2.4-2.7,4.2-3c0.3,0,0.6-0.1,0.9-0.1h25c2.4,0,4.4-1.9,4.4-4.4v-56.7
			h-89.4c-2.3,0-4.1,1.9-4.1,4.1v12.9c0,2-1,3.8-2.7,4.8c-1.8,1.2-3.9,1.8-6.1,1.8c-2,0-3.9-0.8-5.3-2.1c-1.8-1.6-4.2-2.4-6.6-2.3
			c-0.5,0-1,0.1-1.5,0.1c-5.3,0.9-8.8,6-8.8,12.7c0,5.8,4.5,10,8.9,11.3c0.9,0.3,1.8,0.4,2.8,0.4c2.3-0.1,4.5-0.8,6.4-2.1
			c1.1-0.8,2.4-1.3,3.7-1.5c1.4-0.1,3.5,0.6,6.2,2c1.9,1,3.1,2.9,3.1,5L377.1,279z"></path><path class="st2" d="M299,382c0-3.4-2.1-6.4-5.3-7.5l-7.2-2.6c-2.4-0.9-4-3.1-4-5.7v-10.9c0-2.7,2.2-4.9,4.9-4.9H317
			c1.8,0,3.5-0.9,4.4-2.5c1.1-1.7,1.7-3.8,1.7-5.8c0-5-4.6-5.3-4.4-12s6.1-10.8,13.3-10.8s12.3,6.8,12.1,12.1s-3.4,7.1-3.6,10.1
			c-0.1,1.6,1,4,2,5.9c0.9,1.7,2.7,2.8,4.6,2.8h25c2.7,0,4.8,2.1,4.9,4.8v9.9c0,2.5,1.6,4.8,4,5.7l7.3,2.7c4.1,1.6,6.2,6.2,4.7,10.3
			c-0.8,2.2-2.6,3.9-4.7,4.7L381,391c-2.4,0.9-4,3.2-4,5.7v12c0,2.1-1.7,3.7-3.7,3.7H287c-2.6,0-4.6-2.1-4.6-4.6c0,0,0,0,0,0v-9.9
			c0-2.5,1.6-4.8,4-5.7l7.4-2.7C296.9,388.3,299,385.3,299,382z"></path><path class="st1" d="M373.2,412.9H287c-2.8,0-5.1-2.3-5.1-5.1v-9.9c0-2.7,1.7-5.2,4.3-6.1l7.4-2.7c3.9-1.4,5.9-5.7,4.5-9.6
			c-0.8-2.1-2.4-3.7-4.5-4.5l-7.2-2.6c-2.6-0.9-4.4-3.4-4.4-6.2v-10.8c0-3,2.4-5.4,5.4-5.4H317c1.6,0,3.1-0.8,4-2.2
			c1.1-1.7,1.6-3.6,1.6-5.6c0-1.8-0.7-3.4-1.9-4.7c-1.7-2-2.6-4.6-2.5-7.3c0.1-6.7,5.8-11.3,13.8-11.3c3.4,0,6.6,1.4,8.9,3.9
			c2.3,2.3,3.7,5.5,3.8,8.8c-0.1,2.4-0.9,4.8-2.2,6.8c-0.7,1-1.1,2.1-1.3,3.2c-0.1,1.2,0.6,3.2,1.9,5.7c0.8,1.5,2.4,2.5,4.1,2.5h25
			c2.9,0,5.3,2.4,5.4,5.3v9.9c0,2.3,1.5,4.4,3.6,5.2l7.4,2.7c4.4,1.6,6.7,6.5,5.1,10.9c-0.9,2.4-2.8,4.3-5.2,5.1l-7.2,2.6
			c-2.2,0.8-3.7,2.9-3.7,5.2v12C377.5,411.1,375.6,412.9,373.2,412.9C373.2,412.9,373.2,412.9,373.2,412.9z M287.3,351
			c-2.4,0-4.4,2-4.4,4.4v10.8c0,2.3,1.5,4.4,3.7,5.2l7.2,2.6c3.4,1.2,5.6,4.4,5.6,8c0,3.6-2.2,6.8-5.5,8l-7.4,2.7
			c-2.2,0.8-3.6,2.9-3.6,5.2v9.9c0,2.3,1.8,4.1,4.1,4.1h86.1c1.8,0,3.2-1.5,3.2-3.2v-12c0-2.8,1.7-5.2,4.4-6.2l7.2-2.6
			c3-1.1,5-3.9,5-7c0-3.1-2-5.9-4.9-7l-7.4-2.7c-2.6-1-4.3-3.4-4.3-6.1v-9.9c-0.1-2.4-2-4.3-4.4-4.3h-25c-2.1,0-4-1.2-5-3.1
			c-1.4-2.7-2.1-4.8-2-6.2c0.2-1.3,0.7-2.6,1.5-3.7c1.3-1.9,2-4.1,2.1-6.4c-0.1-3-1.3-5.9-3.5-8.1c-2.1-2.2-5.1-3.5-8.2-3.6
			c-7.4,0-12.7,4.2-12.8,10.3c-0.1,2.4,0.7,4.8,2.3,6.7c1.3,1.5,2.1,3.4,2.1,5.3c0,2.2-0.6,4.3-1.8,6.1c-1,1.7-2.9,2.7-4.8,2.7
			H287.3z"></path><path class="st0" d="M295.6,373.4l-7.4-2.7c-2.4-0.9-4-3.1-4-5.7v-9.9c-0.1-2.7-2.2-4.8-4.9-4.8h-53.9c-0.4,0.1-30.9,0.1-30.9,0.1
			c-2.7,0-4.9,2.2-4.9,4.9v52.4c0,2.6,2.1,4.6,4.6,4.6c0,0,0,0,0,0h86.2c2.1,0,3.7-1.7,3.7-3.7v-12c0-2.6,1.6-4.8,4-5.7l7.2-2.6
			c1.6-0.6,2.9-1.6,3.9-2.9c2.5-3.6,1.7-8.6-1.9-11.1C296.9,373.9,296.3,373.6,295.6,373.4L295.6,373.4z"></path><path class="st1" d="M280.6,412.9h-86.2c-2.8,0-5.1-2.3-5.1-5.1v-52.4c0-3,2.4-5.4,5.4-5.4c8.3,0,30-0.1,30.8-0.1h54
			c2.9,0,5.3,2.4,5.4,5.3v9.9c0,2.3,1.4,4.4,3.6,5.2l7.4,2.7c4.4,1.6,6.7,6.5,5.1,10.9c-0.9,2.4-2.8,4.3-5.2,5.1l-7.2,2.6
			c-2.2,0.8-3.7,2.9-3.7,5.2v12C284.8,411,282.9,412.9,280.6,412.9z M225.6,350.8c-1.6,0.1-19.9,0.1-30.9,0.1c-2.4,0-4.4,2-4.4,4.4
			v52.4c0,2.3,1.8,4.1,4.1,4.1h86.1c1.8,0,3.2-1.5,3.2-3.2v-12c0-2.8,1.7-5.2,4.4-6.2l7.2-2.6c3.9-1.4,5.9-5.7,4.5-9.6
			c-0.7-2.1-2.4-3.7-4.5-4.5l0,0l-7.4-2.7c-2.6-1-4.3-3.4-4.3-6.1v-9.9c-0.1-2.4-2-4.3-4.4-4.3L225.6,350.8z"></path></g></g><g id="main_character"><path class="st0" d="M222.9,338c0,0-63.3,62.2-84.4,63.8c-20.4,1.5-47.9-12.6-66.5-71.8c-1.1-3.5,0-7.4,2.7-9.9l0.2-0.2
		c9.1-8.3,20.3-14,32.3-16.6l0,0c3.6-0.8,7.4,0.6,9.6,3.6l20.6,27.9l16.2-13.7l102.5-19.2c2.4,17.2,6.8,48.3,6.8,48.3l-53.2,0.1"></path><path class="st1" d="M135.7,402.4c-16.7,0-44.8-10.4-64.2-72.2c-1.2-3.7,0-7.8,2.8-10.4l0.2-0.2c9.2-8.3,20.4-14.1,32.6-16.6
		c3.8-0.8,7.8,0.7,10.1,3.8l20.3,27.5l15.8-13.4c0.1-0.1,0.1-0.1,0.2-0.1l102.5-19.2c0.1,0,0.3,0,0.4,0.1c0.1,0.1,0.2,0.2,0.2,0.3
		c2.4,17.2,6.8,48.3,6.8,48.3c0,0.1,0,0.3-0.1,0.4c-0.1,0.1-0.2,0.2-0.4,0.2l-53,0.1c-5.9,5.5-13.2,12.1-21,18.7
		c-24.6,21-41.6,31.9-50.4,32.6C137.6,402.3,136.7,402.4,135.7,402.4z M109.2,303.7c-0.6,0-1.3,0.1-1.9,0.2
		c-12,2.6-23,8.2-32.1,16.5l-0.2,0.2c-2.6,2.3-3.6,6-2.6,9.3c20.4,64.8,50.1,72.5,66,71.4c20.7-1.5,83.5-63,84.1-63.6
		c0.2-0.2,0.5-0.2,0.7,0c0,0,0,0,0,0c0.2,0.2,0.2,0.5,0,0.7c0,0,0,0,0,0c-0.1,0.1-4.9,4.8-12.2,11.6l51.3-0.1
		c-0.6-4.2-4.4-31.3-6.7-47.2l-101.9,19.1l-16.1,13.6c-0.1,0.1-0.2,0.1-0.4,0.1c-0.1,0-0.3-0.1-0.3-0.2l-20.7-27.9
		C114.7,305.1,112,303.7,109.2,303.7L109.2,303.7z"></path><path class="st0" d="M219.7,156.7l-56.6-7.9c0,0-9.2,1.1-11.6,7s-2,7.2-3.2,7.7s-9.9,1.9-12,10.4s-0.9,10.4-1.1,12.2
		s-8.6,8.4-8.1,19.5s7.7,15.1,7.7,15.1l84-21.7c15.8,0.4,20.8-9.9,20.9-19.2s-9.6-11.4-10.7-12.8S227,158.1,219.7,156.7"></path><path class="st1" d="M134.8,221.2c-0.1,0-0.2,0-0.2-0.1c-0.3-0.2-7.4-4.2-8-15.5c-0.4-8.3,4.1-14.2,6.6-17.4
		c0.6-0.7,1.1-1.4,1.5-2.2c0-0.5,0-1-0.1-1.4c-0.2-1.8-0.5-4.5,1.1-10.8c2-7.7,9-9.7,11.6-10.5l0.7-0.2c0.5-0.2,0.6-0.6,1.1-2.2
		c0.3-1.1,0.9-2.8,1.8-5.2c2.4-6.1,11.6-7.3,12-7.4h0.1l56.7,7.9l0,0c6,1.2,7.9,6.3,9,9c0.2,0.5,0.4,1,0.7,1.5
		c0.5,0.4,1.1,0.8,1.8,1.1c3.2,1.6,9.1,4.6,9,12.1c-0.1,6-2.1,11.2-5.6,14.6s-9,5.3-15.7,5.1L134.8,221.2L134.8,221.2z M163.1,149.3
		c-0.8,0.1-9,1.4-11.1,6.7c-0.9,2.4-1.4,4.1-1.8,5.2c-0.5,1.7-0.8,2.5-1.7,2.9c-0.2,0.1-0.4,0.1-0.8,0.3c-2.5,0.7-9.1,2.6-10.9,9.8
		c-1.6,6.2-1.3,8.8-1.1,10.5c0.1,0.5,0.1,1.1,0.1,1.6c-0.1,0.6-0.7,1.4-1.7,2.7c-2.4,3.1-6.8,8.8-6.4,16.8
		c0.5,9.8,6.2,13.9,7.3,14.6l83.8-21.6h0.1c6.5,0.2,11.5-1.4,15-4.8s5.2-8.2,5.3-13.9c0.1-6.8-5.3-9.6-8.4-11.2
		c-0.8-0.3-1.5-0.8-2.1-1.4c-0.3-0.6-0.6-1.1-0.8-1.8c-1-2.7-2.7-7.3-8.2-8.4L163.1,149.3z"></path><path class="st2" d="M272.9,183.7H322c2.6,0,4.6-2.1,4.6-4.6c0,0,0,0,0,0v-9.9c0-2.5-1.6-4.8-4-5.7l-7.4-2.7
		c-3.1-1.2-5.2-4.1-5.2-7.5l0,0c0-3.4,2.1-6.4,5.3-7.5l7.2-2.6c2.4-0.9,4-3.1,4-5.7v-10.8c0-2.7-2.2-4.9-4.8-4.9c0,0,0,0,0,0h-29.7
		c-1.8,0-3.5-0.9-4.4-2.5c-1.1-1.8-1.7-3.8-1.7-5.8c0-5,4.6-5.3,4.4-12s-6.1-10.8-13.3-10.8s-12.3,6.8-12.1,12.2s3.4,7.1,3.6,10.1
		c0.1,1.6-1,4-2,5.9c-0.9,1.7-2.7,2.8-4.6,2.8H237c-2.7,0-4.9,2.2-4.9,4.9l0,0v57.2H272.9z"></path><path class="st1" d="M322,184.2h-89.9c-0.3,0-0.5-0.2-0.5-0.5v-57.2c0-3,2.4-5.4,5.4-5.4h25c1.7,0,3.3-1,4.1-2.5
		c1.3-2.5,2-4.5,1.9-5.7c-0.2-1.2-0.6-2.3-1.3-3.2c-1.4-2-2.1-4.4-2.2-6.8c0.1-3.3,1.4-6.5,3.8-8.8c2.3-2.5,5.5-3.9,8.9-3.9
		c8,0,13.7,4.7,13.8,11.3c0.1,2.7-0.8,5.3-2.5,7.3c-1.2,1.3-1.9,3-1.9,4.7c0,2,0.6,3.9,1.6,5.6c0.9,1.4,2.4,2.2,4,2.2h29.7
		c3,0,5.4,2.4,5.4,5.4v10.8c0,2.8-1.7,5.2-4.4,6.2l-7.2,2.6c-3.9,1.4-5.9,5.6-4.6,9.5c0.7,2.1,2.4,3.8,4.5,4.5l7.4,2.7
		c2.6,1,4.3,3.4,4.3,6.1v9.9C327.2,181.9,324.9,184.2,322,184.2C322,184.2,322,184.2,322,184.2z M232.6,183.2H322
		c2.3,0,4.1-1.8,4.1-4.1c0,0,0,0,0,0v-9.9c0-2.3-1.4-4.4-3.6-5.2l-7.4-2.7c-4.4-1.6-6.7-6.5-5.1-10.9c0.9-2.4,2.8-4.3,5.2-5.1
		l7.2-2.6c2.2-0.8,3.7-2.9,3.7-5.2v-10.8c0-2.4-1.9-4.4-4.4-4.4h-29.7c-2,0-3.8-1-4.8-2.7c-1.2-1.8-1.8-3.9-1.8-6.1
		c0-2,0.8-3.9,2.1-5.3c1.6-1.8,2.4-4.2,2.3-6.7c-0.1-6.1-5.4-10.3-12.8-10.3c-3.1,0-6,1.3-8.2,3.6c-2.2,2.1-3.4,5-3.5,8.1
		c0.1,2.3,0.8,4.5,2.1,6.4c0.8,1.1,1.3,2.4,1.5,3.7c0.1,1.4-0.6,3.5-2,6.2c-1,1.9-2.9,3.1-5,3.1h-25c-2.4,0-4.4,2-4.4,4.4l0,0
		L232.6,183.2z"></path><path class="st0" d="M272.9,200.4c-6.7-7.9-11.2-21-8.1-25.4s7.4,3.8,8.1,8.6h27.9c0,0-1.5,13-5.1,17.9
		C295.7,201.6,288.5,197.8,272.9,200.4z"></path><path class="st1" d="M295.7,202.1c-0.1,0-0.2,0-0.2-0.1c-0.1,0-7.3-3.7-22.5-1.1c-0.2,0-0.4,0-0.5-0.2c-6.5-7.7-11.6-21.2-8.2-26
		c0.6-1.1,1.8-1.6,2.9-1.4c2.8,0.7,5.4,6.1,6,9.8h27.5c0.1,0,0.3,0.1,0.4,0.2c0.1,0.1,0.1,0.2,0.1,0.4c-0.1,0.5-1.5,13.2-5.2,18.2
		C296,202,295.9,202.1,295.7,202.1z M283.3,199c7,0,11,1.5,12.2,2c2.9-4.4,4.4-14.3,4.7-16.8h-27.3c-0.2,0-0.5-0.2-0.5-0.4
		c-0.6-3.8-3.1-8.9-5.4-9.4c-0.7-0.2-1.3,0.2-1.9,1c-2.8,4,1.2,16.6,7.9,24.6C276.5,199.3,279.9,199,283.3,199z"></path><path class="st2" d="M295.7,201.6c4.7,3.2,6.1,15.1,6.1,23.2s1.8,47.4-16.1,56.4s-26.7,4.3-26.7,4.3L262,306c0,0-17.5,8.1-52.7,14
		s-61.6,3.9-61.6,3.9l-3.5-33.8c0,0-15.9-4.1-18.7-19.5s6.1-54.6,25.4-70.1s49-19.2,61.2-18.6s30.1,9.8,41.3,36l11.2,26.2l3-41.3
		c0,0,0.3-1.7,5.2-2.4S289.4,198.4,295.7,201.6z"></path><path class="st1" d="M150.1,290.7c-0.8,0-1.6,0-2.4,0c-0.3,0-0.5-0.2-0.5-0.5s0.2-0.5,0.5-0.5c20.9,0.7,30.8-7.5,51.5-26.1
		c21.9-19.8,28.9-32,23.2-40.7c-0.2-0.2-0.1-0.5,0.1-0.7c0.2-0.2,0.5-0.1,0.7,0.1c0,0,0,0,0,0c6,9.2-1,21.7-23.4,41.9
		C181.3,281.1,170.7,290.7,150.1,290.7z"></path><path class="st1" d="M141.8,257.9c-0.3,0-0.5-0.2-0.5-0.5c0-0.2,0.1-0.3,0.2-0.4c0.1-0.1,15.6-11,30.8-22.6
		c6.6-5.1,11.5-11,15.4-15.7c5.4-6.5,9.3-11.3,14.6-10.7c0.3,0,0.5,0.3,0.4,0.6c0,0.3-0.3,0.5-0.5,0.4c0,0,0,0,0,0
		c-4.8-0.5-8.5,4-13.7,10.3c-3.9,4.8-8.8,10.7-15.5,15.8c-15.3,11.7-30.7,22.6-30.9,22.7C142,257.9,141.9,257.9,141.8,257.9z"></path><path class="st1" d="M151.4,251L151.4,251c-0.3,0-0.5-0.3-0.5-0.6l3.1-34.5c0-0.3,0.3-0.5,0.5-0.5c0,0,0,0,0,0
		c0.3,0,0.5,0.3,0.5,0.5l-3.1,34.5C151.9,250.8,151.7,251,151.4,251C151.4,251,151.4,251,151.4,251z"></path><path class="st1" d="M257.7,281c-0.2,0-0.5-0.2-0.5-0.4c0-0.3-4.9-33-9.9-54.2c-0.1-0.3,0.1-0.5,0.4-0.6s0.5,0.1,0.6,0.4
		c5,21.2,9.8,53.9,9.9,54.3c0,0.3-0.1,0.5-0.4,0.6H257.7z"></path><path class="st1" d="M271.2,257.7c-0.2,0-0.4-0.1-0.5-0.3c-4-8.6-5-10.1-5-10.2c-0.2-0.2-0.1-0.5,0.1-0.7c0.2-0.2,0.5-0.1,0.7,0.1
		c0,0.1,1,1.6,5.1,10.3c0.1,0.2,0,0.5-0.2,0.7c0,0,0,0,0,0C271.4,257.6,271.3,257.7,271.2,257.7z"></path><path class="st0" d="M205,210.9c7.1-8.6,10-13.4,11.4-18.6s1.3-7.1,3.9-7.1s2.7,6.6,2.7,6.6s4.5-6.7,9.5-9.4s21.8-7.4,21.8-7.4
		s2.3,1.8-0.8,3.9s-12.2,7.1-12.2,7.1s14.4-1.1,16.6-0.8s2.3,4.6-2.2,4.9s-14.3,3.6-14.3,3.6s11.1,0.8,14.3,1.3
		c3.1,0.5,4,4.6-0.4,4.7s-10.9,0.7-10.9,0.7l12.3,6.2c0,0,0.4,3.7-5.1,2.2s-9-2.2-9-2.2c-2.1,4.2-5.8,7.4-10.4,8.9
		c-5,1.7-9.7,4.1-14,7.1c0,0-3.9,0.1-8.2-4.2S205,210.9,205,210.9z"></path><path class="st1" d="M218.1,223.1c-0.4,0-4.2-0.1-8.6-4.4s-5-7.7-5-7.8c0-0.1,0-0.3,0.1-0.4c7-8.5,9.9-13.3,11.3-18.4
		c0.2-0.8,0.4-1.5,0.5-2.1c0.9-3.7,1.3-5.3,3.8-5.3c2.2,0,2.9,3.6,3.1,5.6c1.5-2.1,5-6.3,8.8-8.4c4.9-2.7,21.2-7.2,21.9-7.4
		c0.2,0,0.3,0,0.4,0.1c0.6,0.5,1,1.2,1,2c-0.1,1.1-0.8,2.1-1.8,2.6c-2.2,1.5-7.4,4.4-10.2,6c4.2-0.3,12.8-0.8,14.4-0.6
		c1.2,0.2,2,1.3,1.9,2.4c0,1.6-1.3,3.2-4.1,3.4c-3,0.2-8.5,1.8-11.7,2.8c3.5,0.3,9.5,0.8,11.7,1.1c1.7,0.2,3,1.6,3.1,3.3
		c-0.1,1.1-1,2.4-3.5,2.4c-2.9,0.1-6.9,0.4-9.2,0.5l10.7,5.4c0.1,0.1,0.2,0.2,0.3,0.4c0.1,0.9-0.2,1.8-0.9,2.4c-1,0.8-2.6,1-4.8,0.4
		c-4.4-1.2-7.6-1.9-8.6-2.1c-2.2,4.2-6,7.4-10.5,8.8c-4.9,1.7-9.6,4-13.8,7C218.3,223.1,218.2,223.1,218.1,223.1L218.1,223.1z
		 M205.6,211c0.2,0.8,1.1,3.6,4.7,7s7,4,7.7,4.1c4.3-3,9.1-5.4,14-7.1c4.3-1.4,8-4.5,10-8.5c0.1-0.2,0.3-0.3,0.6-0.3
		c0,0,3.6,0.7,9.1,2.2c1.8,0.5,3.2,0.4,3.9-0.1c0.4-0.3,0.6-0.8,0.6-1.2l-12-6.1c-0.2-0.1-0.3-0.3-0.3-0.5c0-0.2,0.2-0.4,0.4-0.4
		c0.1,0,6.6-0.6,11-0.7c1.5,0,2.4-0.6,2.5-1.5c-0.1-1.2-1-2.2-2.2-2.2c-3.1-0.5-14.1-1.3-14.2-1.3c-0.2,0-0.4-0.2-0.5-0.4
		c0-0.2,0.1-0.5,0.3-0.5c0.4-0.1,9.9-3.3,14.4-3.6c2.3-0.2,3.1-1.4,3.2-2.5c0.1-0.7-0.4-1.3-1-1.4c-1.6-0.2-11.5,0.4-16.4,0.8
		c-0.2,0-0.5-0.1-0.5-0.4c-0.1-0.2,0-0.5,0.2-0.6c0.1-0.1,9.1-5,12.1-7.1c0.9-0.6,1.4-1.2,1.4-1.8c0-0.4-0.2-0.8-0.4-1.1
		c-2.2,0.6-16.9,4.8-21.4,7.2c-4.8,2.6-9.3,9.1-9.3,9.2c-0.1,0.2-0.3,0.3-0.6,0.2c-0.2-0.1-0.3-0.3-0.4-0.5c0-2-0.6-6.1-2.2-6.1
		s-2,0.9-2.9,4.6c-0.1,0.6-0.3,1.4-0.5,2.1C215.5,197.7,212.5,202.5,205.6,211z M205,210.9L205,210.9z"></path><path class="st1" d="M236.2,186.9c-0.3,0-0.5-0.2-0.5-0.5c0-0.3,0.2-0.5,0.4-0.5c0,0,0,0,0,0l5-0.4c0.3,0,0.5,0.2,0.5,0.5
		s-0.2,0.5-0.5,0.5l0,0L236.2,186.9L236.2,186.9z"></path><path class="st1" d="M241.3,194.2L241.3,194.2l-3.2-0.2c-0.3,0-0.5-0.3-0.5-0.5c0-0.3,0.2-0.5,0.5-0.5c0,0,0,0,0,0l3.2,0.2
		c0.3,0,0.5,0.2,0.5,0.5S241.7,194.2,241.3,194.2L241.3,194.2z"></path><path class="st1" d="M244.3,201c-0.1,0-0.1,0-0.2,0l-3.3-1.4c-0.3-0.1-0.4-0.4-0.3-0.7c0,0,0,0,0,0c0.1-0.3,0.4-0.4,0.7-0.3
		l3.3,1.4c0.3,0.1,0.4,0.4,0.3,0.6c0,0,0,0,0,0C244.7,200.9,244.5,201,244.3,201z"></path><path class="st1" d="M216.9,199.3c-0.1,0-0.3-0.1-0.4-0.2c-0.2-0.2-0.2-0.5,0-0.7c0,0,0,0,0,0c2.1-2.2,4.1-4.6,6-7
		c0.2-0.2,0.5-0.3,0.7-0.1c0,0,0,0,0,0c0.2,0.2,0.3,0.5,0.1,0.7c-1.9,2.5-3.9,4.9-6.1,7.1C217.1,199.3,217,199.3,216.9,199.3z"></path><path class="st0" d="M156.6,152.4c0,0-10.7,4.6-18.6-3.4s-7.9-29.9,11.9-40.2s27.4,9.2,23.2,17.1S156.6,152.4,156.6,152.4z"></path><path class="st1" d="M149.4,154.2c-4.4,0.1-8.6-1.7-11.7-4.8c-4-4.1-5.9-11.5-4.7-18.8c0.9-5.5,4.2-15.7,16.7-22.2
		c11.2-5.8,17.6-1.9,20.4,1c4.8,4.9,5.7,12.6,3.5,16.8c-4.2,7.8-16.6,26.4-16.7,26.6c-0.1,0.1-0.1,0.1-0.2,0.2
		C154.4,153.7,151.9,154.2,149.4,154.2z M160.4,106.3c-3.6,0.1-7.1,1.1-10.2,2.9c-12.1,6.3-15.4,16.2-16.2,21.5
		c-1.1,7,0.6,14.1,4.4,17.9c7,7.2,16.6,3.8,17.8,3.3c1.1-1.7,12.6-19,16.5-26.4c2.1-3.8,1.2-11-3.3-15.6
		C167.1,107.6,163.8,106.3,160.4,106.3L160.4,106.3z M156.6,152.3L156.6,152.3z"></path><path class="st0" d="M159.7,162.8c-5.4-4.9-7.9-18.6,2.3-32.1s31.7-12.1,31.7-12.1c4.5-4.8,14.1-5,19.6,6.2
		c3.3,6.7,4.1,14.4,2.1,21.7L159.7,162.8z"></path><path class="st1" d="M159.7,163.3c-0.1,0-0.2,0-0.3-0.1c-5.4-4.9-8.5-18.6,2.2-32.8c9.7-12.8,29.5-12.4,31.9-12.3
		c2.4-2.4,5.7-3.5,9.1-3c4.5,0.7,8.5,4,11.2,9.5c3.3,6.8,4.1,14.7,2.1,22c0,0.2-0.2,0.3-0.3,0.3l-55.7,16.4
		C159.8,163.2,159.7,163.3,159.7,163.3z M192,119c-5.1,0-21.4,0.9-29.7,12c-6.3,8.3-10.6,23.7-2.5,31.2L215,146c1.8-7,1-14.5-2.2-21
		c-2.6-5.2-6.3-8.3-10.5-8.9c-3.1-0.5-6.2,0.6-8.3,2.8c-0.1,0.1-0.2,0.2-0.4,0.2C193.6,119.1,193,119,192,119z"></path><path class="st0" d="M174.5,169.2c0.7,9.8,0.6,21.4,0.6,21.4s3.5,8.9,13.2,8.6s9-8.6,8.8-10.3s-2.3-7-2.7-8.8
		S174.5,169.2,174.5,169.2z"></path><path class="st1" d="M187.7,199.6c-9.5,0-13.1-8.8-13.1-8.9c0-0.1,0-0.1,0-0.2c0-0.1,0.1-11.6-0.6-21.3c0-0.3,0.2-0.5,0.5-0.5
		c0.1,0,0.2,0,0.2,0c4.6,2.1,19.7,9.3,20.1,11.2c0.2,0.7,0.6,2,1.1,3.4c0.7,1.8,1.2,3.6,1.6,5.5c0.2,1.4,0.4,5.1-1.9,7.8
		c-1.6,1.9-4.1,2.9-7.4,3L187.7,199.6z M175.6,190.4c0.4,1,3.9,8.5,12.7,8.2c3-0.1,5.2-1,6.7-2.7c2-2.4,1.8-5.7,1.7-7
		c-0.4-1.8-0.9-3.5-1.6-5.3c-0.5-1.4-0.9-2.7-1.1-3.5c-0.5-1.1-9.8-5.9-18.8-10.2C175.6,179,175.6,189.3,175.6,190.4z"></path><path class="st0" d="M211,135.9c0,0,12.8,23.8,4.3,35.7s-34.5,14.3-44.8-1.2c0,0-4.2,6.7-9.6,1.2s-0.9-13.1,6.7-11.1
		c0,0,1.5-7.3,13.5-13.7s17.3-15.6,17.3-15.6S201.3,135.2,211,135.9z"></path><path class="st1" d="M193,181.8h-0.6c-9.4-0.2-17.3-4-21.9-10.6c-1.1,1.6-2.8,2.7-4.7,3c-1.8,0.2-3.5-0.6-5.2-2.3
		c-2.6-2.6-3.2-6.1-1.6-8.9s4.8-3.9,8.3-3.2c0.6-1.8,3.2-8,13.6-13.6c6.9-3.6,12.8-8.9,17.1-15.4c0.1-0.1,0.2-0.2,0.4-0.2
		c0.2,0,0.3,0.1,0.4,0.2c0,0,3,3.9,12.3,4.5c0.2,0,0.3,0.1,0.4,0.3c2.2,4.3,4,8.8,5.4,13.5c2.8,9.9,2.5,17.8-1.1,22.8
		C211.4,178,202.5,181.8,193,181.8z M170.5,169.8c0.2,0,0.3,0.1,0.4,0.2c4.4,6.6,12.2,10.6,21.5,10.7s18.2-3.6,22.4-9.5
		c7.8-10.9-2.9-32.4-4.2-35c-7.6-0.6-11.1-3.2-12.3-4.3c-4.4,6.4-10.3,11.6-17.1,15.2c-11.7,6.2-13.2,13.3-13.3,13.4
		c0,0.1-0.1,0.2-0.2,0.3c-0.1,0.1-0.3,0.1-0.4,0.1c-3.2-0.9-6.3,0.2-7.7,2.6c-1.1,1.9-1.3,4.9,1.5,7.7c1.4,1.5,2.9,2.1,4.4,2
		c2.6-0.3,4.4-3.1,4.4-3.1C170.1,169.9,170.3,169.8,170.5,169.8L170.5,169.8z"></path><path class="st1" d="M190.1,151.6c-0.7,0-1.5,0.1-2.2,0.2s-1.4,0.2-2.2,0.4c-1.4,0.3-2.9,0.7-4.2,1.2l0,0c-0.3,0.1-0.6-0.1-0.6-0.3
		c-0.1-0.2,0-0.4,0.2-0.5c0.6-0.5,1.3-1,2.1-1.3c0.7-0.3,1.5-0.6,2.3-0.8c0.8-0.2,1.6-0.2,2.4-0.2c0.8,0,1.7,0.1,2.4,0.4
		c0.3,0.1,0.4,0.3,0.3,0.6c0,0,0,0,0,0C190.6,151.4,190.4,151.6,190.1,151.6L190.1,151.6z"></path><path class="st1" d="M211.4,144.2c-0.8,0.2-1.6,0.4-2.4,0.7s-1.6,0.5-2.4,0.8c-1.6,0.6-3.2,1.2-4.8,1.8l0,0c-0.3,0.1-0.5,0-0.6-0.3
		c0,0,0,0,0,0c-0.1-0.2,0-0.4,0.2-0.6c0.7-0.5,1.5-1,2.3-1.4c0.8-0.4,1.6-0.8,2.5-1.1c0.9-0.3,1.7-0.5,2.6-0.7
		c0.9-0.2,1.8-0.2,2.7-0.2c0.3,0,0.5,0.3,0.5,0.5C211.8,143.9,211.7,144.1,211.4,144.2L211.4,144.2z"></path><path class="st1" d="M205.1,161.9c-1.9,0-3.5-1.2-3.9-3c0-0.3,0.1-0.5,0.4-0.6c0.3,0,0.5,0.1,0.6,0.4c0.4,1.5,1.8,2.4,3.3,2.2
		c1.1-0.1,1.9-1,1.8-2c0-0.1,0-0.1,0-0.2c0-0.5-0.2-1-0.6-1.4c-1.2-0.9-3.6-0.5-3.6-0.5c-0.3,0-0.5-0.1-0.6-0.4
		c-0.8-3.1-1.3-6.3-1.5-9.5c0-0.3,0.2-0.5,0.5-0.5c0,0,0,0,0,0c0.3,0,0.5,0.2,0.5,0.5c0,0,0,0,0,0c0.2,3,0.6,5.9,1.3,8.8
		c1.4-0.2,2.8,0,3.9,0.7c0.6,0.5,1,1.3,1,2.1c0.2,1.6-1,3-2.6,3.2c0,0-0.1,0-0.1,0C205.4,161.9,205.3,161.9,205.1,161.9z"></path><path class="st1" d="M186.3,158.4c0.5,1.5,1.8,2.4,2.8,2.1s1.5-1.8,1-3.3c-0.1-0.4-0.4-0.8-0.6-1.2l-1.5,1.5l0.1-2.5
		c-0.3-0.1-0.5-0.1-0.8,0C186.3,155.4,185.8,156.9,186.3,158.4z"></path><path class="st1" d="M206.8,151.6c0.5,1.5,1.8,2.4,2.8,2.1s1.5-1.8,1-3.3c-0.1-0.4-0.4-0.8-0.6-1.2l-1.5,1.6l0.1-2.5
		c-0.3-0.1-0.5-0.1-0.8,0C206.7,148.6,206.3,150.1,206.8,151.6z"></path><path class="st1" d="M199.5,171h-0.1c-1.6-0.1-3.1-1.1-3.9-2.6c-0.1-0.2-0.1-0.5,0.2-0.7c0,0,0,0,0,0c0.2-0.1,0.5-0.1,0.7,0.2
		c0.6,1.2,1.8,1.9,3.1,2.1c1.4,0.1,2.8-0.9,3.9-2.5c0.2-0.2,0.5-0.3,0.7-0.1c0.2,0.2,0.3,0.5,0.1,0.7
		C202.8,169.9,201.1,171,199.5,171z"></path><path class="st1" d="M161.3,167.7L161.3,167.7c-0.3,0-0.5-0.3-0.5-0.5c0,0,0,0,0,0c0.1-1.2,0.7-2.3,1.6-3.1
		c1.3-0.8,2.8-1.1,4.3-0.8c0.3,0.1,0.4,0.3,0.4,0.6c0,0,0,0,0,0c-0.1,0.3-0.3,0.4-0.6,0.4c0,0,0,0,0,0c-1.2-0.2-2.5,0-3.5,0.6
		c-0.7,0.6-1.2,1.4-1.2,2.4C161.8,167.5,161.6,167.7,161.3,167.7z"></path><path class="st1" d="M166,170.7L166,170.7c-1-0.1-2-0.6-2.6-1.5c-1-1.4-1.4-3.1-1.2-4.8c0.1-0.3,0.3-0.5,0.6-0.4s0.5,0.3,0.4,0.6
		l0,0c-0.1,1.4,0.2,2.8,1,4c0.4,0.6,1.1,1,1.8,1.1c0.3,0,0.5,0.3,0.5,0.5c0,0,0,0,0,0C166.5,170.5,166.3,170.7,166,170.7
		C166,170.7,166,170.7,166,170.7z"></path><path class="st1" d="M113.2,347.7c-0.3,0-0.5-0.2-0.6-0.4c0-0.3,0.2-0.5,0.4-0.6c7.9-2.3,15.4-5.9,22.1-10.7
		c0.2-0.2,0.5-0.1,0.7,0.1c0.2,0.2,0.1,0.5-0.1,0.7h0c-6.8,4.9-14.4,8.6-22.4,10.9L113.2,347.7z"></path><path class="st2" d="M108.2,298.5l-17.5-32.2c-1.2-2.3-4-3.1-6.3-1.9l-59.7,31.8c-2.3,1.2-3.1,4-1.9,6.3c0.1,0.2,0.2,0.4,0.3,0.5
		l0.9,1.3c0,0,18.3,26.2,49,12.3C73.1,316.6,85.6,304.7,108.2,298.5z"></path><path class="st1" d="M25.3,305c-0.2,0-0.4-0.1-0.4-0.3c-0.1-0.2,0-0.5,0.2-0.7l66.2-35.3c0.2-0.1,0.5,0,0.7,0.2
		c0.1,0.2,0,0.5-0.2,0.7l-66.2,35.3C25.5,305,25.4,305,25.3,305z"></path><path class="st1" d="M90.9,286.6c-10.3,0-15.8-8.5-15.8-8.6c-0.1-0.2-0.1-0.5,0.2-0.7c0.2-0.1,0.6-0.1,0.7,0.2
		c0.3,0.5,8.6,13.2,24.2,5.9c0.3-0.1,0.5,0.1,0.6,0.3c0.1,0.2,0,0.5-0.2,0.6C97.5,285.8,94.2,286.6,90.9,286.6z"></path><path class="st1" d="M53.3,327.5h-0.2c-0.3-0.1-0.4-0.4-0.3-0.6l7.3-19.3c0.1-0.3,0.4-0.4,0.6-0.3c0,0,0,0,0,0
		c0.3,0.1,0.4,0.4,0.3,0.6l-7.4,19.3C53.7,327.4,53.5,327.5,53.3,327.5z"></path><path class="st1" d="M61.5,326.5c-0.1,0-0.1,0-0.2,0c-0.3-0.1-0.4-0.4-0.3-0.6c0,0,0,0,0,0l7.4-19.3c0.1-0.3,0.4-0.4,0.6-0.3
		s0.4,0.4,0.3,0.6L62,326.2C61.9,326.4,61.7,326.5,61.5,326.5z"></path></g></svg>